<?xml version="1.0" encoding="UTF-8"?>
<!DOCTYPE svg PUBLIC "-//W3C//DTD SVG 1.1//EN" "http://www.w3.org/Graphics/SVG/1.1/DTD/svg11.dtd">
<!-- Creator: CorelDRAW 2018 (64-Bit) -->
<svg xmlns="http://www.w3.org/2000/svg" xml:space="preserve" width="59.256mm" height="18.276mm" version="1.1" style="shape-rendering:geometricPrecision; text-rendering:geometricPrecision; image-rendering:optimizeQuality; fill-rule:evenodd; clip-rule:evenodd"
viewBox="0 0 5925.6 1827.6"
 xmlns:xlink="http://www.w3.org/1999/xlink">
 <defs>
  <style type="text/css">
   <![CDATA[
    .fil0 {fill:#328225}
   ]]>
  </style>
 </defs>
 <g id="Layer_x0020_1">
  <metadata id="CorelCorpID_0Corel-Layer"/>
  <path class="fil0" d="M3946.06 1703.61c-13,0 -24.99,-5 -33.99,-15 -10,-10 -15,-20.99 -15,-34.99l0 -350.92c0,-13 5,-23.99 15,-33.99 9,-10 20.99,-15 33.99,-15l31.99 0c14,0 25.99,5 34.99,14 10,10 15,21.99 16,34.99l1 8c0,1 0,1 1,1 1,0 2,0 2,-1 33.99,-43.99 72.98,-65.98 115.97,-65.98 26.99,0 47.99,5 63.98,15 15,9 29.99,25.99 42.99,49.99 0,1 0,2 2,2l1 -2c39.99,-42.99 81.98,-64.98 124.97,-64.98 48.99,0 83.98,14 105.97,39.99 21.99,25.99 32.99,70.98 32.99,132.97l0 235.94c0,14 -5,24.99 -15,34.99 -9,10 -20.99,15 -33.99,15l-37.99 0c-14,0 -24.99,-5 -34.99,-15 -10,-10 -15,-20.99 -15,-34.99l0 -226.95c0,-30.99 -3,-51.99 -10,-61.99 -7,-10 -20,-15 -38.99,-15 -13,0 -25.99,6 -37.99,16 -13,11 -19,21.99 -19,31.99l0 255.94c0,14 -5,24.99 -15,34.99 -9,10 -20.99,15 -33.99,15l-37.99 0c-14,0 -24.99,-5 -34.99,-15 -10,-10 -15,-20.99 -15,-34.99l0 -226.95c0,-30.99 -3,-51.99 -10,-61.99 -6,-10 -19,-15 -37.99,-15 -13,0 -25.99,6 -38.99,16 -13,11 -19,21.99 -19,31.99l0 255.94c0,14 -5,24.99 -15,34.99 -9,10 -20.99,15 -33.99,15l-41.99 0 0.03 0.01z"/>
  <path class="fil0" d="M4844.85 1497.66c-70.98,0 -105.97,21.99 -105.97,64.98 0,15 5,27.99 14,35.99 9,9 21.99,14 36.99,14 27.99,0 49.99,-9 67.98,-25.99 17,-18 25.99,-41.99 25.99,-70.98l0 -10c0,-6 -3,-8 -8,-8l-30.99 0zm-96.98 213.95c-39.99,0 -72.98,-12 -97.98,-37.99 -25.99,-25.99 -38.99,-58.99 -38.99,-99.98 0,-104.97 77.98,-156.96 233.94,-156.96l30.99 0c5,0 8,-3 8,-7l0 -5c0,-21.99 -6,-36.99 -17,-46.99 -11,-10 -29.99,-15 -56.99,-15 -34.99,0 -76.98,6 -125.97,17 -12,2 -22.99,-1 -32.99,-8 -9,-8 -14,-18 -14,-29.99l0 -1c0,-15 5,-27.99 14,-39.99 8,-12 20,-19 33.99,-20.99 49.99,-10 93.98,-15 130.97,-15 75.98,0 128.97,14 160.96,40.99 30.99,26.99 46.99,71.98 46.99,134.97l0 232.94c0,14 -5,24.99 -15,34.99 -10,10 -20.99,15 -34.99,15l-31.99 0c-13,0 -24.99,-5 -34.99,-15 -10,-9 -15,-20.99 -16,-34.99l0 -9c0,-1 0,-1 0,-1 -2,0 -2,0 -2,1 -36.99,44.99 -83.98,66.98 -140.97,66.98l0.02 0.01z"/>
  <path class="fil0" d="M5181.77 1703.61c-13,0 -24.99,-5 -33.99,-15 -10,-10 -14,-20.99 -14,-34.99l0 -350.92c0,-13 4,-23.99 14,-33.99 9,-10 20.99,-15 33.99,-15l41.99 0c14,0 24.99,5 33.99,15 10,10 15,20.99 15,33.99l0 36.99c0,0 0,1 1,1 1,0 1,-1 1,-1 35.99,-47.99 85.98,-75.98 149.96,-83.98 13,-2 24.99,2 33.99,12 10,10 14,21.99 14,34.99l0 7c0,14 -4,24.99 -14,34.99 -9,10 -20.99,15 -34.99,16 -46.99,5 -82.98,20.99 -107.97,47.99 -25.99,26.99 -38.99,61.99 -38.99,103.97l0 140.97c0,14 -5,24.99 -14,34.99 -10,10 -20.99,15 -33.99,15l-46.99 0z"/>
  <path class="fil0" d="M5597.67 1368.69c-13,0 -24.99,-5 -34.99,-14 -10,-10 -14,-20.99 -14,-33.99 0,-14 4,-24.99 14,-34.99 10,-10 21.99,-15 34.99,-15l33.99 0c5,0 7,-2 7,-7l0 -107.97c0,-13 5,-23.99 15,-33.99 10,-10 20.99,-15 34.99,-15l40.99 0c13,0 24.99,5 34.99,15 9,10 14,20.99 14,33.99l0 107.97c0,5 3,7 8,7l84.98 0c13,0 24.99,5 33.99,15 10,10 14,20.99 14,34.99 0,13 -4,23.99 -14,33.99 -9,9 -20.99,14 -33.99,14l-84.98 0c-5,0 -8,3 -8,8l0 147.96c0,35.99 4,58.99 10,68.98 7,10 21.99,15 44.99,15 12,0 20.99,-1 27.99,-2 13,-2 23.99,1 33.99,8 10,8 15,18 15,29.99l0 7c0,14 -5,26.99 -14,37.99 -9,11 -20.99,17 -34.99,19 -18,2 -38.99,3 -62.98,3 -57.99,0 -99.98,-12 -123.97,-36.99 -23.99,-24.99 -35.99,-69.98 -35.99,-135.97l0 -161.96c0,-5 -2,-8 -7,-8l-33.99 0 -0.01 0z"/>
  <path class="fil0" d="M2564.4 636.87l0 -239.94c0,-30.99 -13,-55.99 -40.99,-77.98 -29.99,-23.99 -66.98,-35.99 -111.97,-35.99 -43.99,0 -79.98,12 -110.97,35.99 -27.99,22.99 -41.99,46.99 -41.99,77.98l0 239.94 305.93 0 -0.01 0zm93.97 382.9c-23.99,0 -44.99,-8 -61.99,-21.99 -20.99,-15 -31.99,-36.99 -31.99,-61.99l0 -130.97 -305.93 0 0 130.97c0,24.99 -11,46.99 -30.99,61.99 -17,14 -38.99,21.99 -62.98,21.99 -23.99,0 -44.99,-8 -61.99,-21.99 -20,-15 -30.99,-36.99 -30.99,-61.99l0 -538.87c0,-79.98 33.99,-147.96 102.98,-202.95 65.98,-51.99 145.96,-78.98 236.94,-78.98 91.98,0 171.96,26.99 237.94,78.98 67.98,54.99 102.98,122.97 102.98,202.95l0 538.87c0,24.99 -11,46.99 -30.99,61.99 -17,14 -38.99,21.99 -62.98,21.99l-0.01 0z"/>
  <path class="fil0" d="M3223.24 600.88c43.99,0 79.98,-12 110.97,-36.99 28.99,-22.99 41.99,-46.99 41.99,-76.98l0 -74.98c0,-30.99 -13,-54.99 -41.99,-77.98 -30.99,-24.99 -66.98,-36.99 -110.97,-36.99l-136.97 0 0 303.93 136.97 0 0 -0.01zm202.95 420.89c-10,0 -20,-1 -28.99,-4 -29.99,-8 -45.99,-24.99 -53.99,-37.99l-4 -6 -128.97 -205.95 -123.97 0 0 167.96c0,24.99 -12,46.99 -31.99,61.99 -17,14 -38.99,21.99 -62.98,21.99 -22.99,0 -44.99,-8 -61.99,-21.99 -20,-15 -30.99,-36.99 -30.99,-61.99l0 -721.83c0,-40.99 23.99,-83.98 91.98,-83.98l232.94 0c91.98,0 170.96,26.99 236.94,78.98 68.98,54.99 103.97,122.97 103.97,202.95l0 74.98c0,58.99 -20.99,113.97 -62.98,161.96 -26.99,31.99 -60.99,57.99 -100.98,77.98l107.97 171.96 0 1c13,21.99 14,45.99 4,68.98 -7,15 -20,34.99 -49.99,46.99 -12,4 -23.99,6 -35.99,6l0.01 0.01z"/>
  <path class="fil0" d="M4203 636.87l0 -239.94c0,-30.99 -13,-55.99 -40.99,-77.98 -29.99,-23.99 -66.98,-35.99 -111.97,-35.99 -43.99,0 -80.98,12 -111.97,35.99 -27.99,22.99 -40.99,46.99 -40.99,77.98l0 239.94 305.93 0 -0.01 0zm93.98 382.9c-23.99,0 -45.99,-8 -62.98,-21.99 -20,-15 -30.99,-36.99 -30.99,-61.99l0 -130.97 -305.93 0 0 130.97c0,24.99 -11,46.99 -30.99,61.99 -17,14 -38.99,21.99 -62.98,21.99 -23.99,0 -44.99,-8 -62.98,-21.99 -20,-15 -30.99,-36.99 -30.99,-61.99l0 -538.87c0,-79.98 34.99,-147.96 103.97,-202.95 64.98,-51.99 144.97,-78.98 236.94,-78.98 91.98,0 171.96,26.99 236.94,78.98 68.98,54.99 103.97,122.97 103.97,202.95l0 538.87c0,24.99 -11,46.99 -30.99,61.99 -18,14 -38.99,21.99 -62.98,21.99l-0.01 0z"/>
  <path class="fil0" d="M4816.85 1019.77c-23.99,0 -45.99,-8 -62.98,-21.99 -19,-16 -29.99,-37.99 -29.99,-61.99l0 -638.85 -142.97 0c-24.99,0 -45.99,-7 -62.98,-20.99 -20.99,-16 -31.99,-37.99 -31.99,-61.99 0,-23.99 11,-45.99 31.99,-61.99 16,-15 37.99,-21.99 62.98,-21.99l473.89 0c23.99,0 44.99,7 62.98,20.99 20,16 30.99,37.99 30.99,62.98 0,24.99 -11,46.99 -31.99,61.99 -17,14 -38.99,20.99 -61.99,20.99l-143.97 0 0 638.85c0,23.99 -11,45.99 -30.99,61.99 -17,14 -37.99,21.99 -62.98,21.99l0 0.01z"/>
  <path class="fil0" d="M5737.63 636.87l0 -239.94c0,-30.99 -13,-55.99 -40.99,-77.98 -30.99,-23.99 -66.98,-35.99 -111.97,-35.99 -43.99,0 -80.98,12 -111.97,35.99 -27.99,22.99 -40.99,46.99 -40.99,77.98l0 239.94 305.93 0 -0.01 0zm92.98 382.9c-22.99,0 -44.99,-8 -61.99,-21.99 -20,-15 -30.99,-36.99 -30.99,-61.99l0 -130.97 -305.93 0 0 130.97c0,24.99 -11,46.99 -30.99,61.99 -18,14 -38.99,21.99 -62.98,21.99 -23.99,0 -45.99,-8 -62.98,-21.99 -20,-15 -30.99,-36.99 -30.99,-61.99l0 -538.87c0,-79.98 34.99,-147.96 102.98,-202.95 65.98,-51.99 145.96,-78.98 237.94,-78.98 91.98,0 171.96,26.99 236.94,78.98 68.98,54.99 103.97,122.97 103.97,202.95l0 538.87c0,24.99 -11,46.99 -31.99,61.99 -17,14 -38.99,21.99 -62.98,21.99l-0.01 0z"/>
  <path class="fil0" d="M2359.45 1446.67c-18,0 -35.99,1 -53.99,4 -3,1 -5,3 -5,6l0 110.97c0,1 1,1 2,2 1,0 2,0 2,0 31.99,-29.99 57.99,-68.98 77.98,-116.97 1,-1 1,-3 0,-4 0,-1 -1,-2 -2,-2 -5,0 -12,0 -20.99,0zm-129.97 28.99c-40.99,21.99 -60.99,50.99 -60.99,85.98 0,17 4,29.99 12,37.99 7,9 18,14 31.99,14 7,0 12,-1 16,-1 3,-1 4,-3 4,-7l0 -126.97c0,-1 0,-2 -1,-3 -1,0 -2,-1 -2,0zm-24 199.96c-31.99,0 -57.99,-9 -77.98,-27.99 -19,-20 -28.99,-45.99 -28.99,-77.98 0,-36.99 11,-69.98 33.99,-98.98 22.99,-28.99 54.99,-50.99 96.98,-65.98 2,-1 3,-3 3,-6l0 -55.99c0,-3 -1,-5 -4,-5l-76.98 0c-8,0 -15,-3 -20,-8 -6,-6 -9,-13 -9,-20.99 0,-8 3,-15 9,-20.99 5,-6 12,-8 20,-8l76.98 0c3,0 4,-2 4,-5l0 -26.99c0,-8 4,-16 10,-21.99 6,-6 13,-9 20.99,-9l6 0c8,0 16,3 21.99,9 6,6 9,14 9,21.99l0 26.99c0,3 2,5 5,5l198.95 0c8,0 15,2 20.99,8 6,6 8,13 8,20.99 0,8 -2,15 -8,20.99 -6,5 -13,8 -20.99,8l-198.95 0c-3,0 -5,2 -5,5l0 39.99c0,4 2,5 5,4 14,-2 31.99,-3 53.99,-3 62.98,0 111.97,14 146.96,41.99 33.99,26.99 51.99,64.98 51.99,112.97 0,36.99 -12,68.98 -34.99,96.98 -22.99,26.99 -54.99,46.99 -94.98,59.99 -8,3 -16,2 -23.99,-3 -7,-4 -12,-11 -15,-19l-1 -2c-3,-8 -2,-16 2,-22.99 5,-8 11,-13 19,-16 24.99,-10 43.99,-22.99 57.99,-38.99 14,-17 20.99,-34.99 20.99,-54.99 0,-31.99 -12,-55.99 -36.99,-70.98 -2,-2 -4,-1 -5,2 -25.99,64.98 -60.99,115.97 -104.97,151.96 -43.99,35.99 -88.98,53.99 -135.97,53.99l-0.01 0z"/>
  <path class="fil0" d="M2779.34 1246.72c67.98,7 133.97,11 199.95,12 8,0 16,3 21.99,10 6,6 9,13 9,21.99 0,8 -3,15 -9,20.99 -6,6 -14,10 -21.99,10 -70.98,-2 -139.97,-6 -207.95,-13 -9,-1 -16,-5 -20.99,-12 -6,-7 -8,-15 -7,-22.99 2,-9 6,-16 13,-20.99 7,-5 14,-7 22.99,-6zm-78.98 279.93c-8,-2 -15,-7 -20,-14 -5,-7 -6,-15 -5,-22.99 9,-50.99 15,-87.98 18,-110.97 2,-9 6,-16 12,-21.99 7,-6 15,-8 23.99,-7l9 1c8,0 15,4 20.99,11 5,6 7,14 6,21.99 -5,34.99 -8,59.99 -10,73.98l0 1 0 0 1 -1c23.99,-16 50.99,-28.99 79.98,-38.99 29.99,-10 57.99,-15 83.98,-15 54.99,0 94.98,11 120.97,31.99 25.99,21.99 38.99,54.99 38.99,98.98 0,48.99 -20.99,86.98 -61.99,113.97 -40.99,26.99 -100.98,39.99 -178.96,39.99 -28.99,0 -60.99,-1 -95.98,-4 -8,-1 -16,-5 -20.99,-11 -6,-7 -8,-15 -8,-22.99l0 -2c1,-8 4,-15 11,-20 7,-6 14,-8 22.99,-8 41.99,4 71.98,6 90.98,6 50.99,0 89.98,-8 116.97,-24.99 26.99,-16 40.99,-38.99 40.99,-66.98 0,-44.99 -28.99,-67.98 -87.98,-67.98 -40.99,0 -89.98,17 -146.96,50.99 -19,11 -37.99,14 -56.99,10l-5 -1 0.02 -0.01z"/>
  <path class="fil0" d="M3445.18 1456.67c-8,1 -15,-1 -21.99,-7 -6,-5 -10,-12 -10,-20 -1,-9 1,-17 7,-22.99 5,-7 12,-11 20.99,-12 55.99,-5 111.97,-9 165.96,-9 9,0 16,3 21.99,9 6,6 9,13 9,21.99 0,8 -3,16 -10,21.99 -6,6 -13,9 -20.99,9 -58.99,1 -112.97,4 -161.96,9l0 0.01zm165.96 157.96c9,-1 16,1 22.99,6 7,6 11,12 12,20.99 1,9 -1,16 -6,22.99 -5,7 -12,11 -20.99,13 -29.99,4 -57.99,6 -84.98,6 -50.99,0 -90.98,-10 -121.97,-27.99 -29.99,-19 -44.99,-42.99 -44.99,-71.98 0,-20.99 11,-42.99 31.99,-64.98 7,-6 14,-10 22.99,-10 9,-1 17,1 24.99,6 6,4 9,10 10,17 1,7 -2,14 -7,19 -9,10 -14,18 -14,25.99 0,13 9,23.99 26.99,31.99 17,8 40.99,12 70.98,12 21.99,0 47.99,-2 76.98,-6l0.02 -0.01zm-393.9 69.98c-8,-2 -14,-7 -18,-14 -5,-7 -5,-15 -2,-22.99 31.99,-97.98 57.99,-198.95 79.98,-300.93 1,-3 0,-5 -3,-5l-38.99 0c-9,0 -16,-3 -21.99,-9 -7,-7 -10,-14 -10,-22.99 0,-8 3,-15 10,-20.99 6,-6 13,-9 21.99,-9l50.99 0c3,0 5,-2 5,-5 3,-14 5,-23.99 6,-30.99 2,-9 7,-16 13,-20.99 7,-6 15,-8 23.99,-7l7 0c8,1 15,5 20,12 6,6 7,14 6,21.99 0,3 -1,7 -2,13 -1,5 -2,9 -3,12 0,1 0,2 1,3 1,1 2,2 3,2l156.96 0c8,0 16,3 21.99,9 6,6 9,13 9,20.99 0,9 -3,16 -9,22.99 -6,6 -14,9 -21.99,9l-167.96 0c-4,0 -6,1 -6,4 -22.99,113.97 -50.99,219.95 -82.98,317.92 -3,8 -8,15 -16,19 -8,4 -16,5 -23.99,3l-9 -1 0 -0.01z"/>
  <path class="fil0" d="M975.78 495.9l-235.94 0c-26.99,0 -48.99,-21.99 -48.99,-48.99 0,-26.99 21.99,-48.99 48.99,-48.99l235.94 0c26.99,0 48.99,21.99 48.99,48.99 0,26.99 -21.99,48.99 -48.99,48.99z"/>
  <path class="fil0" d="M1344.69 1151.74l-82.98 0 0 -775.81c2,-95.98 65.98,-275.93 272.93,-275.93l65.98 66.98 -71.98 10c-163.96,15 -182.96,180.96 -183.96,199.95l0 774.81 0.01 0z"/>
  <path class="fil0" d="M1031.76 929.8c21.99,59.99 76.98,155.96 209.95,185.96 -23.99,-65.98 -81.98,-167.96 -209.95,-185.96zm266.94 277.93c-1,0 -2,0 -3,0 -316.92,-20.99 -359.91,-313.92 -359.91,-316.92 -2,-12 2,-23.99 9,-32.99 8,-9 19,-14 30.99,-14 246.94,-9 345.92,202.95 363.91,315.92 2,13 -2,24.99 -10,34.99 -8,8 -19,13 -30.99,13z"/>
  <path class="fil0" d="M1031.76 484.9c21.99,58.99 76.98,154.96 209.95,185.96 -23.99,-65.98 -81.98,-167.96 -209.95,-185.96zm266.94 277.94c-1,0 -2,0 -3,0 -316.92,-21.99 -359.91,-313.92 -359.91,-316.92 -2,-12 2,-23.99 9,-32.99 8,-9 19,-14 30.99,-14 246.94,-10 345.92,202.95 363.91,315.92 2,12 -2,24.99 -10,34.99 -8,8 -19,13 -30.99,13z"/>
  <path class="fil0" d="M1623.62 639.87c-77.98,25.99 -210.95,97.98 -248.94,280.93 85.98,-29.99 227.95,-104.97 248.94,-280.93zm-306.92 395.9c-13,0 -23.99,-5 -32.99,-13 -11,-10 -17,-23.99 -16,-38.99 26.99,-401.9 396.9,-454.89 400.9,-455.89 14,-2 26.99,2 37.99,11 10,9 17,21.99 17,35.99 11,310.93 -255.94,436.89 -399.9,459.89 -2,1 -5,1 -7,1z"/>
  <path class="fil0" d="M739.84 1205.73c-26.99,0 -48.99,-21.99 -48.99,-48.99l0 -1070.74c0,-26.99 21.99,-48.99 48.99,-48.99 26.99,0 48.99,21.99 48.99,48.99l0 1070.74c0,26.99 -21.99,48.99 -48.99,48.99z"/>
  <path class="fil0" d="M154.98 595.88c20.99,59.99 75.98,155.96 209.95,185.96 -24.99,-65.98 -81.98,-167.96 -209.95,-185.96zm266.93 277.93c-1,0 -2,0 -3,0 -317.92,-20.99 -359.91,-313.92 -359.91,-316.92 -2,-12 1,-22.99 9,-31.99 8,-9 19,-15 29.99,-15 246.94,-9 346.92,202.95 364.91,315.92 2,13 -2,25.99 -10,34.99 -8,9 -20,13 -30.99,13z"/>
  <path class="fil0" d="M398.92 871.81c-160.96,0 -291.93,130.97 -291.93,291.93 0,160.96 130.97,291.93 291.93,291.93 160.96,0 291.93,-130.97 291.93,-291.93 0,-160.96 -130.97,-291.93 -291.93,-291.93zm0 681.84c-214.95,0 -388.91,-174.96 -388.91,-389.91 0,-214.95 173.96,-388.91 388.91,-388.91 214.95,0 389.91,173.96 389.91,388.91 0,214.95 -174.96,389.91 -389.91,389.91z"/>
  <path class="fil0" d="M647.86 57.01c-54.99,227.95 -260.94,397.9 -505.88,397.9 -38.99,0 -75.98,-5 -111.97,-12 -7,31.99 -8,64.98 -6,97.98 37.99,7 77.98,11 117.97,11 301.93,0 553.87,-217.95 607.85,-503.88 -33.99,3 -67.98,6 -101.98,9l0.01 0z"/>
  <path class="fil0" d="M544.88 89c-251.94,0 -455.89,203.95 -455.89,455.89l0 737.82c0,250.94 203.95,455.89 455.89,455.89l737.82 0c250.94,0 455.89,-204.95 455.89,-455.89l0 -737.82c0,-251.94 -204.95,-455.89 -455.89,-455.89l-737.82 0zm737.82 1738.58l-737.82 0c-299.93,0 -544.87,-244.94 -544.87,-544.87l0 -737.82c0,-299.93 244.94,-544.87 544.87,-544.87l737.82 0c299.93,0 544.87,244.94 544.87,544.87l0 737.82c0,299.93 -244.94,544.87 -544.87,544.87z"/>
  <path class="fil0" d="M337.93 1725.6l-53.99 -64.98c7,-5 655.84,-536.87 1510.64,-634.85l10 82.98c-829.8,94.98 -1460.65,610.85 -1466.65,616.85z"/>
  <path class="fil0" d="M544.88 1808.58l-47.99 -68.98c26.99,-18 644.84,-441.89 1275.69,-480.88l5 82.98c-606.85,36.99 -1226.7,462.89 -1232.7,466.89l0 -0.01z"/>
  <path class="fil0" d="M937.79 1808.58l-48.99 -67.98c11,-8 277.93,-194.95 814.8,-282.93l5 84.98c-516.88,84.98 -767.82,263.94 -770.81,265.94l0 -0.01z"/>
  <path class="fil0" d="M544.88 89c-251.94,0 -455.89,203.95 -455.89,455.89l0 737.82c0,250.94 203.95,455.89 455.89,455.89l737.82 0c250.94,0 455.89,-204.95 455.89,-455.89l0 -737.82c0,-251.94 -204.95,-455.89 -455.89,-455.89l-737.82 0zm737.82 1738.58l-737.82 0c-299.93,0 -544.87,-244.94 -544.87,-544.87l0 -737.82c0,-299.93 244.94,-544.87 544.87,-544.87l737.82 0c299.93,0 544.87,244.94 544.87,544.87l0 737.82c0,299.93 -244.94,544.87 -544.87,544.87z"/>
 </g>
</svg>
