<?xml version="1.0" encoding="UTF-8" standalone="no"?>
<svg
   xmlns:dc="http://purl.org/dc/elements/1.1/"
   xmlns:cc="http://creativecommons.org/ns#"
   xmlns:rdf="http://www.w3.org/1999/02/22-rdf-syntax-ns#"
   xmlns:svg="http://www.w3.org/2000/svg"
   xmlns="http://www.w3.org/2000/svg"
   xmlns:sodipodi="http://sodipodi.sourceforge.net/DTD/sodipodi-0.dtd"
   xmlns:inkscape="http://www.inkscape.org/namespaces/inkscape"
   version="1.1"
   width="828.20978"
   height="521.6145"
   id="svg88"
   viewBox="0 0 828.20978 521.6145"
   sodipodi:docname="authenticationtokoonline.cdr">
  <metadata
     id="metadata94">
    <rdf:RDF>
      <cc:Work
         rdf:about="">
        <dc:format>image/svg+xml</dc:format>
        <dc:type
           rdf:resource="http://purl.org/dc/dcmitype/StillImage" />
      </cc:Work>
    </rdf:RDF>
  </metadata>
  <defs
     id="defs92" />
  <sodipodi:namedview
     pagecolor="#ffffff"
     bordercolor="#666666"
     borderopacity="1"
     objecttolerance="10"
     gridtolerance="10"
     guidetolerance="10"
     inkscape:pageopacity="0"
     inkscape:pageshadow="2"
     inkscape:window-width="640"
     inkscape:window-height="480"
     id="namedview90" />
  <path
     d="m 826.7924,214.4854 h -1.394 v -38.1863 c 0,0 0,0 0,0 0,-12.2043 -9.8972,-22.1015 -22.1015,-22.1015 0,0 0,0 0,0 h -80.9033 c -3e-4,0 -3e-4,0 -3e-4,0 -12.2043,0 -22.1015,9.8972 -22.1015,22.1015 0,0 0,0 0,0 l 3e-4,209.4948 c -3e-4,-6e-4 -3e-4,-6e-4 -3e-4,-6e-4 0,12.2043 9.8972,22.1014 22.1015,22.1014 0,0 0,0 0,0 l 80.9036,3e-4 c 0,-3e-4 0,-3e-4 0,-3e-4 12.2043,0 22.1015,-9.8971 22.1015,-22.1014 0,0 0,0 0,0 V 241.6674 h 1.394 z"
     style="fill:#3f3d56;fill-rule:evenodd"
     id="path2" />
  <path
     d="m 820.6954,177.5976 v 209.1901 c -3e-4,9.1145 -7.3928,16.507 -16.5087,16.507 l -81.2914,3e-4 c -9.1125,-3e-4 -16.5002,-7.39 -16.5002,-16.5022 0,0 0,-0.006 0,-0.006 v -209.19 c 0,-9.1103 7.3891,-16.4991 16.5002,-16.4991 l 9.8626,-3e-4 c -0.3807,0.9383 -0.578,1.9421 -0.578,2.9546 0,4.3294 3.5087,7.8418 7.8381,7.8457 l 46.3498,-3e-4 c 0.005,3e-4 0.01,3e-4 0.0148,3e-4 4.3237,0 7.8301,-3.5064 7.8301,-7.8301 0,-1.0182 -0.1998,-2.0285 -0.585,-2.9702 h 10.5601 c 6e-4,3e-4 6e-4,3e-4 6e-4,3e-4 9.1128,0 16.5047,7.388 16.5067,16.5008 z"
     style="fill:#d0cde1;fill-rule:evenodd"
     id="path4" />
  <path
     d="m 710.8055,293.6976 v -25.4999 h 94.5 v 25.4999 z"
     style="fill:#fe9900;fill-rule:evenodd"
     id="path6" />
  <path
     d="m 809.0555,289.1976 h -91.5001 c -1.2421,-0.002 -2.249,-1.0085 -2.2501,-2.2504 v -22.5 c 0.001,-1.2421 1.008,-2.249 2.2498,-2.2501 l 91.5004,5e-4 c 1.2416,6e-4 2.2484,1.0075 2.2496,2.2493 v 22.5 c -0.001,1.2422 -1.008,2.249 -2.2499,2.2502 z m -89.2502,-27.75 c -0.4142,0 -0.7498,0.3356 -0.7501,0.7495 v 22.5 c 0,0.4144 0.3359,0.75 0.7498,0.7503 l 91.5004,3e-4 c 0.4141,-6e-4 0.7497,-0.3362 0.75,-0.7503 v -22.5 c -6e-4,-0.4142 -0.3362,-0.7498 -0.75,-0.7501 z"
     style="fill:#3f3d56;fill-rule:evenodd"
     id="path8" />
  <path
     d="m 723.7885,283.9476 v -1.9875 h 14.9301 v 1.9875 z"
     style="fill:#3f3d56;fill-rule:evenodd"
     id="path10" />
  <path
     d="m 744.3174,283.9476 v -1.9875 h 14.9302 v 1.9875 z"
     style="fill:#3f3d56;fill-rule:evenodd"
     id="path12" />
  <path
     d="m 764.8464,283.9476 v -1.9875 h 14.9301 v 1.9875 z"
     style="fill:#3f3d56;fill-rule:evenodd"
     id="path14" />
  <path
     d="m 785.3757,283.9476 v -1.9875 h 14.9301 v 1.9875 z"
     style="fill:#3f3d56;fill-rule:evenodd"
     id="path16" />
  <path
     d="m 820.6954,365.5176 v 21.2701 c -3e-4,9.1145 -7.3928,16.507 -16.5087,16.507 l -81.2914,3e-4 c -9.1125,-3e-4 -16.5002,-7.39 -16.5002,-16.5022 0,0 0,-0.006 0,-0.006 V 288.942 Z"
     style="fill:#000000;fill-opacity:0;fill-rule:evenodd"
     id="path18" />
  <path
     d="M 76.3055,520.1974 V 346.1975 h 354.75 v 173.9999 z"
     style="fill:#d0cde1;fill-rule:evenodd"
     id="path20" />
  <path
     d="M 340.8678,520.1974 H 77.8054 c -0.8269,-0.003 -1.4973,-0.6729 -1.4996,-1.5 v -171 c 0.0023,-0.8275 0.6727,-1.4979 1.4998,-1.5001 l 3.3299,2e-4 z"
     style="fill:#000000;fill-opacity:0;fill-rule:evenodd"
     id="path22" />
  <path
     d="m 240.5554,370.9477 v -1.5001 h 549.7498 v 1.5001 z"
     style="fill:#3f3d56;fill-rule:evenodd"
     id="path24" />
  <path
     d="M 414.3617,4.6559 H 257.2444 V 1.4176 l -71.2432,-3e-4 v 3.2383 l -157.765,3e-4 c 6e-4,3e-4 6e-4,3e-4 6e-4,3e-4 -5.8686,0 -10.6277,4.7591 -10.6277,10.6276 0,0 0,0 0,0 l -6e-4,215.1417 c 3e-4,-3e-4 3e-4,-3e-4 3e-4,-3e-4 0,5.8686 4.7594,10.628 10.628,10.628 h 386.1249 c 5.8683,0 10.6277,-4.7594 10.6277,-10.628 0,0 0,0 0,0 V 15.2836 c -3e-4,2e-4 -3e-4,2e-4 -3e-4,2e-4 0,-5.8685 -4.7591,-10.6276 -10.6277,-10.6276 0,0 0,0 0,0 z"
     style="fill:#3f3d56;fill-rule:evenodd"
     id="path26" />
  <path
     d="M 31.8603,237.1703 V 23.4351 h 378.8776 v 213.7352 z"
     style="fill:#d0cde1;fill-rule:evenodd"
     id="path28" />
  <path
     d="m 224.8611,13.7231 a 3.886,3.886 0 0 1 -3.886,3.886 3.886,3.886 0 1 1 3.886,-3.886 z"
     style="fill:#fe9900;fill-rule:evenodd"
     id="path30" />
  <path
     d="m 260.8055,154.9474 v -11.9999 h 39.75 v 11.9999 z"
     style="fill:#fe9900;fill-rule:evenodd"
     id="path32" />
  <path
     d="m 303.5554,151.9475 h -36.75 c -1.2416,-9e-4 -2.2485,-1.0077 -2.2496,-2.2496 v -9 c 0.001,-1.2421 1.008,-2.249 2.2498,-2.2501 l 36.7498,-3e-4 c 1.2424,0.001 2.2493,1.0083 2.2504,2.2501 v 9 c -0.001,1.2422 -1.008,2.249 -2.2498,2.2502 z m -34.4999,-14.2501 c -0.4139,9e-4 -0.7492,0.3362 -0.7498,0.7501 v 9 c 6e-4,0.4141 0.3359,0.7495 0.7498,0.75 h 36.7498 c 0.4144,-5e-4 0.7497,-0.3359 0.7503,-0.7497 v -9 c -6e-4,-0.4142 -0.3359,-0.7495 -0.7498,-0.7501 z"
     style="fill:#3f3d56;fill-rule:evenodd"
     id="path34" />
  <path
     d="m 529.3054,208.9474 v -52.4999 h 75 v 52.4999 z"
     style="fill:#fe9900;fill-rule:evenodd"
     id="path36" />
  <path
     d="m 603.5553,150.4477 h -2.9999 c 0,-13.6667 -11.0832,-24.7502 -24.7501,-24.7502 -13.6667,0 -24.7502,11.0835 -24.7502,24.7502 h -2.9996 c -3e-4,-15.3233 12.4265,-27.7501 27.7498,-27.7501 15.3232,0 27.75,12.4268 27.75,27.7501 z"
     style="fill:#3f3d56;fill-rule:evenodd"
     id="path38" />
  <path
     d="m 583.3054,171.0726 c -2e-4,-0.003 -2e-4,-0.006 -2e-4,-0.008 0,-4.1415 -3.3588,-7.5002 -7.5002,-7.5002 -4.1414,0 -7.5002,3.3587 -7.5002,7.5002 0,2.5877 1.3351,4.994 3.53,6.3629 v 8.0501 c 0,2.1923 1.7779,3.9702 3.9705,3.9702 0,0 0,0 0,0 v 3e-4 c 2.1926,-3e-4 3.9704,-1.7782 3.9704,-3.9708 l 3e-4,-8.0498 c 2.1938,-1.3655 3.5292,-3.7695 3.5292,-6.3547 z"
     style="fill:#3f3d56;fill-rule:evenodd"
     id="path40" />
  <path
     d="m 219.7939,424.9477 v -1.7779 h 14.2217 v 1.7779 z"
     style="fill:#3f3d56;fill-rule:evenodd"
     id="path42" />
  <path
     d="m 239.3488,424.9477 v -1.7779 h 14.2217 v 1.7779 z"
     style="fill:#3f3d56;fill-rule:evenodd"
     id="path44" />
  <path
     d="m 258.9036,424.9477 v -1.7779 h 14.2217 v 1.7779 z"
     style="fill:#3f3d56;fill-rule:evenodd"
     id="path46" />
  <path
     d="m 278.4589,424.9477 v -1.7779 h 14.2217 v 1.7779 z"
     style="fill:#3f3d56;fill-rule:evenodd"
     id="path48" />
  <path
     d="m 115.3054,354.4475 a 4.5,4.5 0 0 1 -4.5,4.5 4.5,4.5 0 1 1 4.5,-4.5 z"
     style="fill:#3f3d56;fill-rule:evenodd"
     id="path50" />
  <path
     d="m 131.0553,354.4475 a 4.5,4.5 0 0 1 -4.5,4.5 4.5,4.5 0 1 1 4.5,-4.5 z"
     style="fill:#3f3d56;fill-rule:evenodd"
     id="path52" />
  <path
     d="m 146.8054,354.4475 a 4.5,4.5 0 0 1 -4.5,4.5 4.5,4.5 0 1 1 4.5,-4.5 z"
     style="fill:#3f3d56;fill-rule:evenodd"
     id="path54" />
  <path
     d="M 304.3054,433.9477 H 203.0553 c -1.2416,-0.002 -2.2484,-1.0086 -2.2496,-2.2504 v -25.4999 c 0.001,-1.2422 1.008,-2.2491 2.2499,-2.2502 l 101.2498,3e-4 c 1.2422,8e-4 2.2491,1.0077 2.2502,2.2496 v 25.4999 c -0.001,1.2421 -1.008,2.249 -2.2499,2.2501 z m -99,-30.7503 c -0.4135,0 -0.7491,0.3357 -0.7494,0.7495 v 25.4999 c 3e-4,0.4142 0.3359,0.7498 0.7497,0.7501 l 101.2496,5e-4 c 0.4144,-8e-4 0.7501,-0.3364 0.7503,-0.7503 v -25.4999 c -2e-4,-0.4141 -0.3359,-0.7498 -0.7497,-0.75 z"
     style="fill:#3f3d56;fill-rule:evenodd"
     id="path56" />
  <path
     d="m 343.3054,421.1977 a 13.5,13.5 0 0 1 -13.5,13.5 13.5,13.5 0 1 1 13.5,-13.5 z"
     style="fill:#fe9900;fill-rule:evenodd"
     id="path58" />
  <path
     d="m 334.5055,424.2696 -7.261,-7.2615 2.1212,-2.1209 4.7392,4.7384 13.224,-18.792 2.4533,1.7275 z"
     style="fill:#3f3d56;fill-rule:evenodd"
     id="path60" />
  <path
     d="M 326.7377,237.1703 H 31.86 V 39.6278 Z"
     style="fill:#000000;fill-opacity:0;fill-rule:evenodd"
     id="path62" />
  <path
     d="M 435.6278,233.2814 H 398.651 v -2.664 c 0,-3e-4 0,-3e-4 0,-3e-4 0,-0.2917 -0.2364,-0.5281 -0.5281,-0.5281 0,0 0,0 0,0 h -12.6777 c 0,0 0,0 0,0 -0.2917,0 -0.5281,0.2364 -0.5281,0.5281 0,0 0,0 0,0 v 2.664 l -7.9237,3e-4 v -2.664 c 0,-3e-4 0,-3e-4 0,-3e-4 0,-0.2917 -0.2361,-0.5281 -0.5278,-0.5281 0,0 0,0 0,0 h -12.6782 c 5e-4,0 5e-4,0 5e-4,0 -0.2916,0 -0.5281,0.2364 -0.5281,0.5281 0,0 0,0 0,0 v 2.664 l -7.9242,3e-4 v -2.664 c 3e-4,-3e-4 3e-4,-3e-4 3e-4,-3e-4 0,-0.2917 -0.2364,-0.5281 -0.5281,-0.5281 0,0 0,0 0,0 h -12.678 c 3e-4,0 3e-4,0 3e-4,0 -0.2917,0 -0.5281,0.2364 -0.5281,0.5281 0,0 0,0 0,0 v 2.664 l -7.924,3e-4 v -2.664 c 0,-3e-4 0,-3e-4 0,-3e-4 0,-0.2917 -0.2364,-0.5281 -0.528,-0.5281 0,0 0,0 0,0 h -12.678 c 3e-4,0 3e-4,0 3e-4,0 -0.2917,0 -0.5281,0.2364 -0.5281,0.5281 0,0 0,0 0,0 v 2.664 l -7.924,3e-4 v -2.664 c 3e-4,-3e-4 3e-4,-3e-4 3e-4,-3e-4 0,-0.2917 -0.2364,-0.5281 -0.5281,-0.5281 0,0 0,0 0,0 h -12.6782 c 5e-4,0 5e-4,0 5e-4,0 -0.2916,0 -0.5281,0.2364 -0.5281,0.5281 0,0 0,0 0,0 v 2.664 l -7.9242,3e-4 v -2.664 c 3e-4,-3e-4 3e-4,-3e-4 3e-4,-3e-4 0,-0.2917 -0.2364,-0.5281 -0.5281,-0.5281 0,0 0,0 0,0 h -12.678 c 3e-4,0 3e-4,0 3e-4,0 -0.2917,0 -0.5281,0.2364 -0.5281,0.5281 0,0 0,0 0,0 v 2.664 l -7.9239,3e-4 v -2.664 c 2e-4,-3e-4 2e-4,-3e-4 2e-4,-3e-4 0,-0.2917 -0.2364,-0.5281 -0.5281,-0.5281 0,0 0,0 0,0 h -99.3089 c 2e-4,0 2e-4,0 2e-4,0 -0.2916,0 -0.528,0.2364 -0.528,0.5281 0,0 0,0 0,0 v 2.664 l -7.924,3e-4 v -2.664 c 3e-4,-3e-4 3e-4,-3e-4 3e-4,-3e-4 0,-0.2917 -0.2364,-0.5281 -0.5281,-0.5281 0,0 0,0 0,0 h -12.6783 c 3e-4,0 3e-4,0 3e-4,0 -0.2917,0 -0.5281,0.2364 -0.5281,0.5281 0,0 0,0 0,0 v 2.664 l -7.9239,3e-4 v -2.664 c 2e-4,-3e-4 2e-4,-3e-4 2e-4,-3e-4 0,-0.2917 -0.2364,-0.5281 -0.5281,-0.5281 0,0 0,0 0,0 h -12.6779 c 3e-4,0 3e-4,0 3e-4,0 -0.2917,0 -0.5281,0.2364 -0.5281,0.5281 0,0 0,0 0,0 v 2.664 l -7.9243,3e-4 v -2.664 c 3e-4,-3e-4 3e-4,-3e-4 3e-4,-3e-4 0,-0.2917 -0.2364,-0.5281 -0.5281,-0.5281 0,0 0,0 0,0 h -12.6779 c 2e-4,0 2e-4,0 2e-4,0 -0.2916,0 -0.528,0.2364 -0.528,0.5281 0,0 0,0 0,0 v 2.664 l -7.924,3e-4 v -2.664 c 3e-4,-3e-4 3e-4,-3e-4 3e-4,-3e-4 0,-0.2917 -0.2364,-0.5281 -0.5281,-0.5281 0,0 0,0 0,0 H 82.237 c 6e-4,0 6e-4,0 6e-4,0 -0.2917,0 -0.5281,0.2364 -0.5281,0.5281 0,0 0,0 0,0 v 2.664 l -7.9242,3e-4 v -2.664 c 2e-4,-3e-4 2e-4,-3e-4 2e-4,-3e-4 0,-0.2917 -0.2364,-0.5281 -0.5281,-0.5281 0,0 0,0 0,0 H 60.5795 c 3e-4,0 3e-4,0 3e-4,0 -0.2917,0 -0.5281,0.2364 -0.5281,0.5281 0,0 0,0 0,0 v 2.664 l -7.924,3e-4 v -2.664 c 3e-4,-3e-4 3e-4,-3e-4 3e-4,-3e-4 0,-0.2917 -0.2364,-0.5281 -0.5281,-0.5281 0,0 0,0 0,0 H 38.9217 c 3e-4,0 3e-4,0 3e-4,0 -0.2917,0 -0.5281,0.2364 -0.5281,0.5281 0,0 0,0 0,0 v 2.664 l -24.2995,3e-4 c -6.9998,-3e-4 -12.6771,5.677 -12.6771,12.6774 0,0 0,0 0,0 v 5.7325 c 0,7.0004 5.6773,12.6774 12.6777,12.6774 l 421.5328,6e-4 c -3e-4,-6e-4 -3e-4,-6e-4 -3e-4,-6e-4 7.0004,0 12.6777,-5.677 12.6777,-12.6774 l 2e-4,-5.7322 c -2e-4,-3e-4 -2e-4,-3e-4 -2e-4,-3e-4 0,-7.0004 -5.6773,-12.6777 -12.6777,-12.6777 0,0 0,0 0,0 z"
     style="fill:#3f3d56;fill-rule:evenodd"
     id="path64" />
  <path
     d="m 320.0553,164.6974 h -198 c -1.2416,-8e-4 -2.2484,-1.0077 -2.2496,-2.2495 V 79.9478 c 0.001,-1.2422 1.008,-2.249 2.2499,-2.2502 h 197.9997 c 1.2424,0.0012 2.2493,1.008 2.2504,2.2499 v 82.5001 c -0.001,1.2421 -1.008,2.249 -2.2498,2.2501 z M 124.3054,76.9476 c -0.4138,8e-4 -0.7491,0.3362 -0.7497,0.75 v 82.5001 c 6e-4,0.4142 0.3359,0.7495 0.7497,0.7501 l 198,-3e-4 c 0.4145,-3e-4 0.7498,-0.3356 0.7504,-0.7495 V 77.6979 c -6e-4,-0.4141 -0.3359,-0.7495 -0.7498,-0.75 z"
     style="fill:#3f3d56;fill-rule:evenodd"
     id="path66" />
  <path
     d="m 144.5553,125.6975 h -9 c -1.2416,-0.001 -2.2484,-1.008 -2.2496,-2.2498 v -9 c 0.001,-1.2419 1.008,-2.2487 2.2499,-2.2499 l 8.9997,-3e-4 c 1.2424,0.001 2.2493,1.0083 2.2504,2.2502 v 9 c -0.001,1.2418 -1.008,2.2487 -2.2498,2.2498 z m -6.7499,-14.25 c -0.4138,8e-4 -0.7491,0.3362 -0.7497,0.75 v 9 c 6e-4,0.4142 0.3359,0.7495 0.7497,0.7501 h 9 c 0.4145,-6e-4 0.7498,-0.3359 0.7504,-0.7498 v -9 c -6e-4,-0.4141 -0.3359,-0.7495 -0.7498,-0.75 z"
     style="fill:#3f3d56;fill-rule:evenodd"
     id="path68" />
  <path
     d="m 134.0552,125.6975 v -1.5001 h 171 v 1.5001 z"
     style="fill:#3f3d56;fill-rule:evenodd"
     id="path70" />
  <path
     d="m 200.0554,205.1977 v -1.5001 h 549.7498 v 1.5001 z"
     style="fill:#3f3d56;fill-rule:evenodd"
     id="path72" />
  <path
     d="m 210.5555,203.6975 a 10.5,10.5 0 0 1 -10.5,10.4999 10.5,10.5 0 1 1 10.5,-10.4999 z"
     style="fill:#3f3d56;fill-rule:evenodd"
     id="path74" />
  <path
     d="m 758.0554,205.1974 a 8.25,8.25 0 0 1 -8.25,8.25 8.25,8.25 0 1 1 8.25,-8.25 z"
     style="fill:#3f3d56;fill-rule:evenodd"
     id="path76" />
  <path
     d="m 798.5554,370.9477 a 8.25,8.25 0 0 1 -8.25,8.2499 8.25,8.25 0 1 1 8.25,-8.2499 z"
     style="fill:#3f3d56;fill-rule:evenodd"
     id="path78" />
  <path
     d="m 251.0552,370.9477 a 8.25,8.25 0 0 1 -8.2499,8.2499 8.25,8.25 0 1 1 8.2499,-8.2499 z"
     style="fill:#3f3d56;fill-rule:evenodd"
     id="path80" />
  <path
     d="m 346.9363,418.9572 a 13.5,13.5 0 0 1 -13.5,13.5 13.5,13.5 0 1 1 13.5,-13.5 z"
     style="fill:none;stroke:#3f3d56;stroke-width:1.4173;stroke-linecap:butt;stroke-linejoin:miter;stroke-dasharray:none"
     id="path82" />
  <path
     d="M 92.0557,509.6656 V 325.2294 q 0,5.2183 5.2183,5.2183 h 344.3128 q 5.2183,0 5.2183,-5.2183 v 184.4362 q 0,-5.2183 -5.2183,-5.2183 H 97.274 q -5.2183,0 -5.2183,5.2183 z"
     style="fill:none;stroke:#3f3d56;stroke-width:2.8346;stroke-linecap:butt;stroke-linejoin:miter;stroke-dasharray:none"
     id="path84" />
  <path
     d="m 538.2927,151.6652 v 50.0998 q 0,1.9326 1.9327,1.9326 h 70.3882 q 1.9326,0 1.9326,-1.9326 v -50.0998 q 0,-1.9327 -1.9326,-1.9327 h -70.3882 q -1.9327,0 -1.9327,1.9327 z"
     style="fill:none;stroke:#3f3d56;stroke-width:2.8346;stroke-linecap:butt;stroke-linejoin:miter;stroke-dasharray:none"
     id="path86" />
</svg>
