<?xml version="1.0" encoding="UTF-8"?>
<!DOCTYPE svg PUBLIC "-//W3C//DTD SVG 1.1//EN" "http://www.w3.org/Graphics/SVG/1.1/DTD/svg11.dtd">
<!-- Creator: CorelDRAW 2018 (64-Bit) -->
<svg xmlns="http://www.w3.org/2000/svg" xml:space="preserve" width="18.276mm" height="18.276mm" version="1.1" style="shape-rendering:geometricPrecision; text-rendering:geometricPrecision; image-rendering:optimizeQuality; fill-rule:evenodd; clip-rule:evenodd"
viewBox="0 0 1827.6 1827.6"
 xmlns:xlink="http://www.w3.org/1999/xlink">
 <defs>
  <style type="text/css">
   <![CDATA[
    .fil0 {fill:#328225}
   ]]>
  </style>
 </defs>
 <g id="Layer_x0020_1">
  <metadata id="CorelCorpID_0Corel-Layer"/>
  <g id="_2247552321152">
   <path class="fil0" d="M975.79 495.9l-235.94 0c-26.99,0 -48.99,-21.99 -48.99,-48.99 0,-26.99 21.99,-48.99 48.99,-48.99l235.94 0c26.99,0 48.99,21.99 48.99,48.99 0,26.99 -21.99,48.99 -48.99,48.99z"/>
   <path class="fil0" d="M1344.7 1151.74l-82.98 0 0 -775.82c2,-95.98 65.98,-275.94 272.94,-275.94l65.98 66.98 -71.98 10c-163.96,15 -182.96,180.96 -183.96,199.95l0 774.82 0 0.01z"/>
   <path class="fil0" d="M1031.77 929.8c21.99,59.99 76.98,155.96 209.95,185.96 -23.99,-65.98 -81.98,-167.96 -209.95,-185.96zm266.94 277.93c-1,0 -2,0 -3,0 -316.93,-21 -359.92,-313.93 -359.92,-316.93 -2,-12 2,-23.99 9,-32.99 8,-9 19,-14 30.99,-14 246.94,-9 345.92,202.95 363.91,315.93 2,13 -2,24.99 -10,34.99 -8,8 -19,13 -30.99,13l0.01 0z"/>
   <path class="fil0" d="M1031.77 484.9c21.99,58.99 76.98,154.96 209.95,185.96 -23.99,-65.98 -81.98,-167.96 -209.95,-185.96zm266.94 277.94c-1,0 -2,0 -3,0 -316.93,-21.99 -359.92,-313.93 -359.92,-316.93 -2,-12 2,-23.99 9,-32.99 8,-9 19,-14 30.99,-14 246.94,-10 345.92,202.95 363.91,315.93 2,12 -2,24.99 -10,34.99 -8,8 -19,13 -30.99,13l0.01 0z"/>
   <path class="fil0" d="M1623.63 639.86c-77.98,25.99 -210.95,97.98 -248.94,280.93 85.98,-29.99 227.95,-104.98 248.94,-280.93zm-306.92 395.91c-13,0 -23.99,-5 -32.99,-13 -11,-10 -17,-23.99 -16,-38.99 26.99,-401.91 396.91,-454.89 400.91,-455.89 14,-2 26.99,2 37.99,11 10,9 17,21.99 17,35.99 11,310.93 -255.94,436.9 -399.91,459.89 -2,1 -5,1 -7,1z"/>
   <path class="fil0" d="M739.84 1205.73c-26.99,0 -48.99,-21.99 -48.99,-48.99l0 -1070.75c0,-26.99 21.99,-48.99 48.99,-48.99 26.99,0 48.99,21.99 48.99,48.99l0 1070.75c0,26.99 -21.99,48.99 -48.99,48.99z"/>
   <path class="fil0" d="M154.98 595.87c21,59.99 75.98,155.96 209.95,185.96 -24.99,-65.98 -81.98,-167.96 -209.95,-185.96zm266.94 277.94c-1,0 -2,0 -3,0 -317.93,-21 -359.92,-313.93 -359.92,-316.93 -2,-12 1,-22.99 9,-31.99 8,-9 19,-15 29.99,-15 246.94,-9 346.92,202.95 364.91,315.93 2,13 -2,25.99 -10,34.99 -8,9 -20,13 -30.99,13l0.01 0z"/>
   <path class="fil0" d="M398.92 871.81c-160.96,0 -291.93,130.97 -291.93,291.93 0,160.96 130.97,291.93 291.93,291.93 160.96,0 291.93,-130.97 291.93,-291.93 0,-160.96 -130.97,-291.93 -291.93,-291.93zm0 681.84c-214.95,0 -388.91,-174.96 -388.91,-389.91 0,-214.95 173.96,-388.91 388.91,-388.91 214.95,0 389.91,173.96 389.91,388.91 0,214.95 -174.96,389.91 -389.91,389.91z"/>
   <path class="fil0" d="M647.86 57c-54.99,227.95 -260.94,397.91 -505.88,397.91 -38.99,0 -75.98,-5 -111.97,-12 -7,31.99 -8,64.98 -6,97.98 37.99,7 77.98,11 117.97,11 301.93,0 553.87,-217.95 607.86,-503.88 -33.99,3 -67.98,6 -101.98,9l0 -0.01z"/>
   <path class="fil0" d="M544.89 88.99c-251.94,0 -455.89,203.95 -455.89,455.89l0 737.83c0,250.94 203.95,455.89 455.89,455.89l737.83 0c250.94,0 455.89,-204.95 455.89,-455.89l0 -737.83c0,-251.94 -204.95,-455.89 -455.89,-455.89l-737.83 0zm737.82 1738.59l-737.83 0c-299.93,0 -544.87,-244.94 -544.87,-544.87l0 -737.83c0,-299.93 244.94,-544.87 544.87,-544.87l737.83 0c299.93,0 544.87,244.94 544.87,544.87l0 737.83c0,299.93 -244.94,544.87 -544.87,544.87z"/>
   <path class="fil0" d="M337.94 1725.61l-53.99 -64.98c7,-5 655.85,-536.87 1510.64,-634.85l10 82.98c-829.8,94.98 -1460.66,610.86 -1466.65,616.85z"/>
   <path class="fil0" d="M544.89 1808.59l-47.99 -68.98c26.99,-18 644.85,-441.9 1275.7,-480.89l5 82.98c-606.86,36.99 -1226.71,462.89 -1232.71,466.89z"/>
   <path class="fil0" d="M937.79 1808.59l-48.99 -67.98c11,-8 277.93,-194.95 814.81,-282.93l5 84.98c-516.88,84.98 -767.82,263.94 -770.82,265.94l0 -0.01z"/>
   <path class="fil0" d="M544.89 88.99c-251.94,0 -455.89,203.95 -455.89,455.89l0 737.83c0,250.94 203.95,455.89 455.89,455.89l737.83 0c250.94,0 455.89,-204.95 455.89,-455.89l0 -737.83c0,-251.94 -204.95,-455.89 -455.89,-455.89l-737.83 0zm737.82 1738.59l-737.83 0c-299.93,0 -544.87,-244.94 -544.87,-544.87l0 -737.83c0,-299.93 244.94,-544.87 544.87,-544.87l737.83 0c299.93,0 544.87,244.94 544.87,544.87l0 737.83c0,299.93 -244.94,544.87 -544.87,544.87z"/>
  </g>
 </g>
</svg>
