<?xml version="1.0" encoding="UTF-8" standalone="no"?>
<svg
   xmlns:dc="http://purl.org/dc/elements/1.1/"
   xmlns:cc="http://creativecommons.org/ns#"
   xmlns:rdf="http://www.w3.org/1999/02/22-rdf-syntax-ns#"
   xmlns:svg="http://www.w3.org/2000/svg"
   xmlns="http://www.w3.org/2000/svg"
   xmlns:sodipodi="http://sodipodi.sourceforge.net/DTD/sodipodi-0.dtd"
   xmlns:inkscape="http://www.inkscape.org/namespaces/inkscape"
   version="1.1"
   width="666.85321"
   height="364.93509"
   id="svg51"
   viewBox="0 0 666.85321 364.93509"
   sodipodi:docname="logintokoonline.cdr">
  <metadata
     id="metadata57">
    <rdf:RDF>
      <cc:Work
         rdf:about="">
        <dc:format>image/svg+xml</dc:format>
        <dc:type
           rdf:resource="http://purl.org/dc/dcmitype/StillImage" />
      </cc:Work>
    </rdf:RDF>
  </metadata>
  <defs
     id="defs55" />
  <sodipodi:namedview
     pagecolor="#ffffff"
     bordercolor="#666666"
     borderopacity="1"
     objecttolerance="10"
     gridtolerance="10"
     guidetolerance="10"
     inkscape:pageopacity="0"
     inkscape:pageshadow="2"
     inkscape:window-width="640"
     inkscape:window-height="480"
     id="namedview53" />
  <g
     id="Layer1000">
    <path
       d="m 665.4359,355.8067 a 332.0091,7.7117 0 0 1 -332.0091,7.7117 332.0091,7.7117 0 1 1 332.0091,-7.7117 z"
       style="fill:#e6e6e6;fill-rule:evenodd"
       id="path2" />
    <path
       d="M 626.7526,100.5857 H 463.9238 V 99.733 c 0,-2e-4 0,-2e-4 0,-2e-4 0,-1.3825 -1.1211,-2.5036 -2.5036,-2.5036 l -68.826,3e-4 c -1.3825,-3e-4 -2.5036,1.1208 -2.5036,2.5033 0,0 0,0 0,0 v 0.8526 l -163.5001,3e-4 c 3e-4,0 3e-4,0 3e-4,0 -6.0817,0 -11.014,4.9323 -11.014,11.014 0,0 0,0 0,0 l -3e-4,222.9628 c 3e-4,-3e-4 3e-4,-3e-4 3e-4,-3e-4 0,6.0817 4.9323,11.014 11.014,11.014 0,0 0,0 0,0 l 400.1618,6e-4 c 6.0818,-3e-4 11.014,-4.9326 11.014,-11.0146 V 111.5997 c 0,-6.0817 -4.9322,-11.014 -11.014,-11.014 z"
       style="fill:#3f3d56;fill-rule:evenodd"
       id="path4" />
    <path
       d="m 235.3499,119.4678 c -0.6959,0.008 -1.2566,0.5749 -1.2566,1.2714 0,0.004 0,0.007 0,0.011 v 215.7667 c 0,0.003 0,0.007 0,0.0105 0,0.6965 0.5607,1.2634 1.2568,1.2714 l 382.6429,3e-4 c 0.6962,-0.008 1.2569,-0.5752 1.2569,-1.2717 0,-0.004 0,-0.007 0,-0.011 V 120.7497 c 0,-0.003 0,-0.007 0,-0.0105 0,-0.6965 -0.5607,-1.2634 -1.2569,-1.2711 z"
       style="fill:#ffffff;fill-rule:evenodd"
       id="path6" />
    <path
       d="m 430.3636,109.9824 a 4.0273,4.0273 0 0 1 -4.0274,4.0273 4.0273,4.0273 0 1 1 4.0274,-4.0273 z"
       style="fill:#fe9900;fill-rule:evenodd"
       id="path8" />
    <path
       d="m 645.1002,330.5497 h -38.3211 v -3.9574 c 0,-0.2174 -0.2451,-0.3935 -0.5473,-0.3935 h -13.1386 c -0.3025,0 -0.5474,0.1763 -0.5474,0.3935 v 3.9574 h -8.2117 v -3.9574 c 0,-0.2174 -0.2452,-0.3935 -0.5473,-0.3935 h -13.1386 c -0.3025,0 -0.5474,0.1763 -0.5474,0.3935 v 3.9574 h -8.2117 v -3.9574 c 0,-0.2174 -0.2452,-0.3935 -0.5473,-0.3935 h -13.1386 c -0.3025,0 -0.5474,0.1763 -0.5474,0.3935 v 3.9574 h -8.2117 v -3.9574 c 0,-0.2174 -0.2452,-0.3935 -0.5473,-0.3935 h -13.1386 c -0.3025,0 -0.5474,0.1763 -0.5474,0.3935 v 3.9574 h -8.2117 v -3.9574 c 0,-0.2174 -0.2452,-0.3935 -0.5474,-0.3935 h -13.1385 c -0.3025,0 -0.5474,0.1763 -0.5474,0.3935 v 3.9574 h -8.2117 v -3.9574 c 0,-0.2174 -0.2452,-0.3935 -0.5474,-0.3935 h -13.1385 c -0.3025,0 -0.5474,0.1763 -0.5474,0.3935 v 3.9574 h -8.2117 v -3.9574 c 0,-0.2174 -0.2452,-0.3935 -0.5474,-0.3935 H 368.6431 c -0.3024,0 -0.5474,0.1763 -0.5474,0.3935 v 3.9574 h -8.2116 v -3.9574 c 0,-0.2174 -0.2452,-0.3935 -0.5474,-0.3935 h -13.1386 c -0.3024,0 -0.5474,0.1763 -0.5474,0.3935 v 3.9574 h -8.2116 v -3.9574 c 0,-0.2174 -0.2452,-0.3935 -0.5474,-0.3935 h -13.1389 c -0.3024,0 -0.5474,0.1763 -0.5474,0.3935 v 3.9574 h -8.2114 v -3.9574 c 0,-0.2174 -0.2451,-0.3935 -0.5473,-0.3935 h -13.1389 c -0.3024,0 -0.5474,0.1763 -0.5474,0.3935 v 3.9574 h -8.2116 v -3.9574 c 0,-0.2174 -0.2452,-0.3935 -0.5474,-0.3935 h -13.1386 c -0.3025,0 -0.5474,0.1763 -0.5474,0.3935 v 3.9574 h -8.2117 v -3.9574 c 0,-0.2174 -0.2451,-0.3935 -0.5473,-0.3935 h -13.1386 c -0.3025,0 -0.5474,0.1763 -0.5474,0.3935 v 3.9574 h -8.2117 v -3.9574 c 0,-0.2174 -0.2452,-0.3935 -0.5473,-0.3935 h -13.1386 c -0.3025,0 -0.5474,0.1763 -0.5474,0.3935 v 3.9574 h -25.1821 c -7.2562,0 -13.1386,4.2288 -13.1386,9.4448 v 4.2707 c 0,5.2163 5.8824,9.4447 13.1386,9.4447 l 436.8569,3e-4 c 7.2561,0 13.1385,-4.2284 13.1385,-9.4448 v -4.2706 c 0,-5.2163 -5.8824,-9.4451 -13.1385,-9.4451 z"
       style="fill:#3f3d56;fill-rule:evenodd"
       id="path10" />
    <path
       d="m 434.219,161.7951 h 139.8174 c 1.4752,0 2.6717,1.1965 2.6717,2.6716 v 134.4742 c 0,1.4748 -1.1965,2.6714 -2.6717,2.6714 l -139.8174,2e-4 c -1.4752,-2e-4 -2.6717,-1.1968 -2.6717,-2.6719 V 164.4667 c 0,-1.4751 1.1965,-2.6716 2.6717,-2.6716 z"
       style="fill:#e6e6e6;fill-rule:evenodd"
       id="path12" />
    <path
       d="m 129.7531,35.608 c 0.0649,1.4459 0.1088,2.952 0.1088,4.4141 0,4.8039 -0.3957,9.6077 -1.1542,14.3458 -0.7586,4.7381 -7.2967,16.6782 1.0423,23.9749 8.3389,7.2967 23.9782,-21.8869 23.9782,-21.8869 -1.0817,-6.4757 -1.705,-12.5634 0,-16.6782 z"
       style="fill:#ffb8b8;fill-rule:evenodd"
       id="path14" />
    <path
       d="m 141.2195,239.9162 v 22.9326 c 0,0 -3.1272,42.7379 0,53.1618 l -1.0423,19.8053 11.4661,-2e-4 3.1272,-23.9749 c 0,0 9.3816,-30.2292 6.2544,-48.9923 l 2.0849,-22.9326 z"
       style="fill:#ffb8b8;fill-rule:evenodd"
       id="path16" />
    <path
       d="m 124.5413,239.9162 v 22.9326 c 0,0 3.1272,42.7379 0,53.1618 l 1.0423,19.8053 -11.4662,-2e-4 -3.1271,-23.9749 c 0,0 -9.3816,-30.2292 -6.2544,-48.9923 l -2.0849,-22.9326 z"
       style="fill:#ffb8b8;fill-rule:evenodd"
       id="path18" />
    <path
       d="m 97.9603,153.919 c 0,0 -6.2544,39.6108 -2.0849,62.5433 4.1695,22.9326 4.1695,30.2293 4.1695,30.2293 l 26.0597,-1.0423 7.2969,-42.738 6.2544,43.7803 31.2715,-5.2121 c 0,0 0,-33.3564 1.0423,-40.6531 1.0423,-7.2966 1.0423,-48.9923 1.0423,-48.9923 z"
       style="fill:#2f2e41;fill-rule:evenodd"
       id="path20" />
    <path
       d="m 153.7282,335.8157 c 0,0 -11.4661,-7.2967 -16.6782,0 v 12.5087 c 0,0 -4.1695,9.3815 10.4239,7.2966 14.5933,-2.0848 9.3815,-9.3815 9.3815,-9.3815 z"
       style="fill:#2f2e41;fill-rule:evenodd"
       id="path22" />
    <path
       d="m 112.0326,335.8157 c 0,0 11.4661,-7.2967 16.6782,0 v 12.5087 c 0,0 4.1695,9.3815 -10.4239,7.2966 -14.5933,-2.0848 -9.3815,-9.3815 -9.3815,-9.3815 z"
       style="fill:#2f2e41;fill-rule:evenodd"
       id="path24" />
    <path
       d="M 159.9823,29.3539 A 16.6782,16.6782 0 0 1 143.3041,46.0321 16.6782,16.6782 0 1 1 159.9823,29.3539 Z"
       style="fill:#ffb8b8;fill-rule:evenodd"
       id="path26" />
    <path
       d="m 136.0074,68.9647 -7.1702,-16.8701 -7.4231,3.319 -9.3815,54.2041 1.0423,52.1195 c 0,0 47.9497,-2.0849 54.2041,1.0423 6.2543,3.1272 -7.2967,-102.1541 -7.2967,-102.1541 l -6.2544,-7.8015 z"
       style="fill:#fe9900;fill-rule:evenodd"
       id="path28" />
    <path
       d="m 129.9694,46.0321 c 0,0 -15.852,4.1695 -15.852,10.4238 0,0 -15.6359,3.1272 -15.6359,6.2544 0,3.1272 -1.0423,82.3487 -1.0423,82.3487 0,0 -9.3815,17.7205 -2.0848,32.3141 l -1.0423,8.339 20.8476,2.0849 14.5934,-128.2136 z"
       style="fill:#2f2e41;fill-rule:evenodd"
       id="path30" />
    <path
       d="m 152.4696,46.0321 c 0,0 15.8519,4.1695 15.8519,10.4238 0,0 15.6359,3.1272 15.6359,6.2544 0,3.1272 1.0423,82.3487 1.0423,82.3487 0,0 9.3816,17.7205 2.0849,32.3141 l 1.0423,8.339 -20.8477,2.0849 -14.5933,-128.2136 z"
       style="fill:#2f2e41;fill-rule:evenodd"
       id="path32" />
    <path
       d="m 156.8551,7.4636 c 0,0 1.0423,-4.1695 -4.1695,-2.0849 0,0 -6.2543,-7.2966 -12.5087,-2.0848 0,0 -12.5087,-2.0849 -12.5087,8.3389 0,10.4239 -0.5896,13.8657 -0.5896,13.8657 0,0 3.7168,-9.6962 11.0134,-8.6539 4.4592,0.6369 6.9718,0.1063 8.2517,-0.4031 0.7772,-0.3311 1.6166,-0.5037 2.4622,-0.5037 0.6463,0 1.2909,0.1009 1.9057,0.2971 1.8198,0.6151 3.2964,1.9749 4.0595,3.7377 0.6386,1.4746 1.4034,2.916 2.2598,4.2738 1.2098,1.8114 2.2048,3.7823 2.935,5.8371 l -0.001,6e-4 2.1028,-12.1964 c 0,0 1.0423,-6.2543 -2.0849,-8.3389 0,-3e-4 1.0426,-3.1275 -3.1272,-2.0852 z"
       style="fill:#2f2e41;fill-rule:evenodd"
       id="path34" />
    <path
       d="M 192.856,276.567 V 185.1154 H 473.5726 V 276.567 Z"
       style="fill:#fe9900;fill-rule:evenodd"
       id="path36" />
    <path
       d="m 79.1974,171.6398 c 0,0 -6.2543,23.9748 3.1272,21.8902 9.3816,-2.0846 7.2967,-22.9325 7.2967,-22.9325 z"
       style="fill:#ffb8b8;fill-rule:evenodd"
       id="path38" />
    <path
       d="m 203.2415,171.6398 c 0,0 6.2544,23.9748 -3.1271,21.8902 -9.3816,-2.0846 -7.2967,-22.9325 -7.2967,-22.9325 z"
       style="fill:#ffb8b8;fill-rule:evenodd"
       id="path40" />
    <path
       d="m 103.6936,62.7103 -2.8772,-2.2399 c 0,0 -3.3772,0.155 -4.4195,2.2399 -1.0423,2.0849 -17.7205,54.2041 -17.7205,54.2041 0,0 -5.212,27.102 -2.0848,43.7802 l 1.0423,12.5088 h 14.5933 l -1.0423,-19.8054 10.4238,-39.6108 z"
       style="fill:#2f2e41;fill-rule:evenodd"
       id="path42" />
    <path
       d="m 178.7454,62.7103 2.8772,-2.2399 c 0,0 3.3771,0.155 4.4194,2.2399 1.0423,2.0849 17.7206,54.2041 17.7206,54.2041 0,0 5.212,27.102 2.0848,43.7802 l -1.0423,12.5088 H 190.2115 L 191.2538,153.398 180.83,113.7872 Z"
       style="fill:#2f2e41;fill-rule:evenodd"
       id="path44" />
    <path
       d="m 229.9592,240.211 v -19.4637 h 19.4637 v 19.4637 z"
       style="fill:#ffffff;fill-rule:evenodd"
       id="path46" />
    <path
       d="m 283.4844,231.4522 v -1.9464 h 156.6825 v 1.9464 z"
       style="fill:#ffffff;fill-rule:evenodd"
       id="path48" />
  </g>
</svg>
