<?xml version="1.0" encoding="UTF-8"?>
<!DOCTYPE svg PUBLIC "-//W3C//DTD SVG 1.0//EN" "http://www.w3.org/TR/2001/REC-SVG-20010904/DTD/svg10.dtd">
<!-- Creator: CorelDRAW X7 -->
<svg xmlns="http://www.w3.org/2000/svg" xml:space="preserve" width="3.23186in" height="0.963035in" version="1.0" style="shape-rendering:geometricPrecision; text-rendering:geometricPrecision; image-rendering:optimizeQuality; fill-rule:evenodd; clip-rule:evenodd"
viewBox="0 0 3138 935"
 xmlns:xlink="http://www.w3.org/1999/xlink">
 <defs>
  <style type="text/css">
   <![CDATA[
    .fil1 {fill:black;fill-rule:nonzero;fill-opacity:0.301961}
    .fil3 {fill:url(#id0);fill-rule:nonzero}
    .fil2 {fill:url(#id1);fill-rule:nonzero}
    .fil0 {fill:url(#id2);fill-rule:nonzero}
   ]]>
  </style>
  <linearGradient id="id0" gradientUnits="userSpaceOnUse" x1="1351.7" y1="467.6" x2="3138.46" y2="467.6">
   <stop offset="0" style="stop-opacity:1; stop-color:#13BAA4"/>
   <stop offset="0.2" style="stop-opacity:1; stop-color:#13BAA4"/>
   <stop offset="0.901961" style="stop-opacity:1; stop-color:#007376"/>
   <stop offset="1" style="stop-opacity:1; stop-color:#007376"/>
  </linearGradient>
  <linearGradient id="id1" gradientUnits="userSpaceOnUse" x1="-1.12785" y1="671.699" x2="709.859" y2="261.211">
   <stop offset="0" style="stop-opacity:1; stop-color:#DA0081"/>
   <stop offset="0.368627" style="stop-opacity:1; stop-color:#6D7FA1"/>
   <stop offset="0.909804" style="stop-opacity:1; stop-color:#00FFC1"/>
   <stop offset="1" style="stop-opacity:1; stop-color:#00FFC1"/>
  </linearGradient>
  <linearGradient id="id2" gradientUnits="userSpaceOnUse" xlink:href="#id1" x1="630.496" y1="636.319" x2="1205.18" y2="304.524">
  </linearGradient>
 </defs>
 <g id="Layer_x0020_1">
  <metadata id="CorelCorpID_0Corel-Layer"/>
  <path class="fil0" d="M1067 675l-164 3 -1 -37 -2 -154 -6 -356c-1,-70 -59,-126 -129,-125 -71,1 -127,59 -126,129l10 674 0 0c1,71 59,127 130,126l50 -1 93 -1 149 -2c71,-1 127,-59 126,-130 -1,-70 -59,-127 -130,-126z"/>
  <path class="fil1" d="M749 327c2,95 -38,184 -103,246l-7 -438c0,-16 2,-31 8,-45 62,59 101,143 102,237z"/>
  <path class="fil2" d="M384 0l-257 0c-70,0 -127,57 -127,127 0,70 57,127 127,127l259 0c38,0 69,31 68,68 0,37 -30,66 -67,66l-133 0 0 0 -126 0c-2,0 -5,0 -7,1 -67,3 -121,58 -121,127 0,0 0,0 0,0 0,0 0,0 0,0l0 290c0,70 57,127 127,127l0 0c70,0 127,-57 127,-127l0 -155 0 -8 133 0c178,0 322,-145 322,-323 -1,-177 -147,-320 -325,-320z"/>
  <path class="fil3" d="M1352 107c0,-21 18,-38 40,-38l110 0c87,0 140,49 140,121l0 1c0,80 -66,122 -148,122l-62 0 0 70c0,21 -17,38 -40,38 -22,0 -40,-17 -40,-38l0 -276zm144 138l0 0c41,0 64,-23 64,-53l0 -1c0,-34 -25,-53 -65,-53l-63 0 0 107 64 0zm206 135l0 0 0 -273c0,-21 17,-38 40,-38l203 0c20,0 36,15 36,34 0,19 -16,34 -36,34l-163 0 0 71 140 0c20,0 36,16 36,34 0,19 -16,34 -36,34l-140 0 0 74 166 0c20,0 36,15 36,34 0,19 -16,34 -36,34l-206 0c-23,0 -40,-17 -40,-38zm343 1l0 0c-9,-6 -15,-17 -15,-29 0,-20 17,-35 38,-35 10,0 18,3 23,7 28,19 58,31 94,31 33,0 52,-12 52,-33l0 -1c0,-19 -12,-29 -73,-44 -74,-18 -122,-38 -122,-107l0 -1c0,-63 54,-105 128,-105 45,0 84,11 117,31 9,5 18,15 18,30 0,20 -17,36 -38,36 -8,0 -14,-2 -21,-6 -26,-15 -51,-23 -77,-23 -31,0 -47,13 -47,30l0 1c0,23 16,31 79,46 75,19 117,44 117,105l0 1c0,69 -56,108 -135,108 -48,0 -97,-14 -138,-42zm320 -12l0 0 128 -275c9,-19 25,-31 47,-31l4 0c22,0 38,12 47,31l128 275c2,5 4,10 4,15 0,21 -17,37 -38,37 -19,0 -32,-10 -39,-26l-25 -55 -161 0 -26 57c-6,15 -20,24 -37,24 -21,0 -37,-16 -37,-36 0,-5 2,-11 5,-16zm227 -97l0 0 -51 -115 -51 115 102 0zm194 -167l0 0c0,-21 18,-38 41,-38l8 0c20,0 31,9 42,22l156 195 0 -180c0,-21 17,-38 39,-38 22,0 40,17 40,38l0 278c0,21 -18,38 -40,38l-3 0c-19,0 -31,-9 -42,-22l-161 -202 0 187c0,21 -18,38 -40,38 -22,0 -40,-17 -40,-38l0 -278zm-1434 447l0 0c0,-21 18,-38 40,-38 23,0 40,17 40,38l0 244 150 0c20,0 36,15 36,35 0,19 -16,35 -36,35l-190 0c-22,0 -40,-17 -40,-39l0 -275zm287 140l0 0 0 -1c0,-99 82,-180 195,-180 113,0 194,80 194,179l0 1c0,99 -82,181 -195,181 -113,0 -194,-81 -194,-180zm305 0l0 0 0 -1c0,-60 -46,-110 -111,-110 -65,0 -110,49 -110,109l0 1c0,60 46,110 111,110 65,0 110,-49 110,-109zm156 -140l0 0c0,-21 18,-38 41,-38 22,0 40,17 40,38l0 117 149 -140c10,-10 20,-15 34,-15 22,0 37,16 37,35 0,12 -6,21 -15,29l-103 92 113 134c6,8 11,16 11,27 0,22 -18,38 -41,38 -16,0 -25,-8 -34,-19l-105 -130 -46 41 0 69c0,22 -18,39 -40,39 -23,0 -41,-17 -41,-39l0 -278zm350 264l0 0 128 -274c9,-19 25,-31 47,-31l5 0c22,0 38,12 46,31l128 274c3,6 4,11 4,16 0,20 -16,37 -38,37 -19,0 -31,-11 -39,-27l-24 -54 -162 0 -25 57c-7,15 -21,24 -37,24 -21,0 -38,-16 -38,-36 0,-6 3,-11 5,-17zm227 -96l0 0 -51 -116 -51 116 102 0zm195 -168l0 0c0,-21 18,-38 40,-38 23,0 41,17 41,38l0 244 149 0c20,0 36,15 36,35 0,19 -16,35 -36,35l-190 0c-22,0 -40,-17 -40,-39l0 -275z"/>
 </g>
</svg>
