<?xml version="1.0" encoding="UTF-8" standalone="no"?>
<svg
   xmlns:dc="http://purl.org/dc/elements/1.1/"
   xmlns:cc="http://creativecommons.org/ns#"
   xmlns:rdf="http://www.w3.org/1999/02/22-rdf-syntax-ns#"
   xmlns:svg="http://www.w3.org/2000/svg"
   xmlns="http://www.w3.org/2000/svg"
   xmlns:sodipodi="http://sodipodi.sourceforge.net/DTD/sodipodi-0.dtd"
   xmlns:inkscape="http://www.inkscape.org/namespaces/inkscape"
   version="1.1"
   width="138.1691"
   height="52.633701"
   id="svg7"
   viewBox="0 0 138.1691 52.633701"
   sodipodi:docname="logotokoonline.cdr">
  <metadata
     id="metadata13">
    <rdf:RDF>
      <cc:Work
         rdf:about="">
        <dc:format>image/svg+xml</dc:format>
        <dc:type
           rdf:resource="http://purl.org/dc/dcmitype/StillImage" />
      </cc:Work>
    </rdf:RDF>
  </metadata>
  <defs
     id="defs11" />
  <sodipodi:namedview
     pagecolor="#ffffff"
     bordercolor="#666666"
     borderopacity="1"
     objecttolerance="10"
     gridtolerance="10"
     guidetolerance="10"
     inkscape:pageopacity="0"
     inkscape:pageshadow="2"
     inkscape:window-width="640"
     inkscape:window-height="480"
     id="namedview9" />
  <g
     id="Layer1000">
    <path
       d="M 66.0008,10.2844 V 26.2213 H 62.3166 V 10.2844 H 57.1252 V 6.8513 h 14.0669 v 3.4331 z m 13.1317,1.2002 c 1.0046,0 1.9398,0.1907 2.8143,0.5723 0.8699,0.3812 1.6373,0.9116 2.298,1.5908 0.6605,0.6792 1.1767,1.4791 1.5582,2.4004 0.3816,0.9209 0.5723,1.921 0.5723,3.0002 0,1.0791 -0.1907,2.0746 -0.5723,2.9865 -0.3815,0.9117 -0.8977,1.7025 -1.5582,2.3723 -0.6607,0.6699 -1.4281,1.1954 -2.298,1.577 -0.8745,0.3815 -1.8097,0.5723 -2.8143,0.5723 -1.0048,0 -1.9397,-0.1908 -2.8145,-0.5723 -0.8697,-0.3816 -1.6327,-0.9071 -2.2839,-1.577 -0.6514,-0.6698 -1.163,-1.4606 -1.5443,-2.3723 -0.3815,-0.9119 -0.5723,-1.9074 -0.5723,-2.9865 0,-1.0792 0.1908,-2.0793 0.5723,-3.0002 0.3813,-0.9213 0.8929,-1.7212 1.5443,-2.4004 0.6512,-0.6792 1.4142,-1.2096 2.2839,-1.5908 0.8748,-0.3816 1.8097,-0.5723 2.8145,-0.5723 z m 0.0139,11.6946 c 0.4839,0 0.9397,-0.0978 1.3677,-0.2931 0.4278,-0.1953 0.8048,-0.4745 1.1302,-0.8374 0.3257,-0.3628 0.5817,-0.7954 0.7676,-1.298 0.186,-0.5023 0.2792,-1.0604 0.2792,-1.6744 0,-0.614 -0.0932,-1.1815 -0.2792,-1.7025 -0.1859,-0.521 -0.4419,-0.9677 -0.7676,-1.3399 -0.3254,-0.3719 -0.7024,-0.6605 -1.1302,-0.8651 -0.428,-0.2047 -0.8838,-0.307 -1.3677,-0.307 -0.4838,0 -0.9442,0.1023 -1.3816,0.307 -0.4374,0.2046 -0.8141,0.4932 -1.1304,0.8651 -0.3164,0.3722 -0.5675,0.8189 -0.7535,1.3399 -0.1862,0.521 -0.2792,1.0885 -0.2792,1.7025 0,0.614 0.093,1.1721 0.2792,1.6744 0.186,0.5026 0.4371,0.9352 0.7535,1.298 0.3163,0.3629 0.693,0.6421 1.1304,0.8374 0.4374,0.1953 0.8978,0.2931 1.3816,0.2931 z m 12.8945,-1.0885 v 4.1306 H 88.3568 V 5.4558 h 3.6841 v 11.6108 l 4.7169,-5.2192 h 5.0797 l -5.3586,5.61 5.6656,8.7639 h -4.6888 l -3.5725,-6.0565 z m 17.7095,-10.6061 c 1.0046,0 1.9397,0.1907 2.8142,0.5723 0.87,0.3812 1.6373,0.9116 2.2981,1.5908 0.6604,0.6792 1.1766,1.4791 1.5582,2.4004 0.3815,0.9209 0.5723,1.921 0.5723,3.0002 0,1.0791 -0.1908,2.0746 -0.5723,2.9865 -0.3816,0.9117 -0.8978,1.7025 -1.5582,2.3723 -0.6608,0.6699 -1.4281,1.1954 -2.2981,1.577 -0.8745,0.3815 -1.8096,0.5723 -2.8142,0.5723 -1.0049,0 -1.9398,-0.1908 -2.8145,-0.5723 -0.8697,-0.3816 -1.6328,-0.9071 -2.2839,-1.577 -0.6514,-0.6698 -1.1631,-1.4606 -1.5443,-2.3723 -0.3816,-0.9119 -0.5723,-1.9074 -0.5723,-2.9865 0,-1.0792 0.1907,-2.0793 0.5723,-3.0002 0.3812,-0.9213 0.8929,-1.7212 1.5443,-2.4004 0.6511,-0.6792 1.4142,-1.2096 2.2839,-1.5908 0.8747,-0.3816 1.8096,-0.5723 2.8145,-0.5723 z m 0.0139,11.6946 c 0.4839,0 0.9397,-0.0978 1.3677,-0.2931 0.4277,-0.1953 0.8048,-0.4745 1.1302,-0.8374 0.3257,-0.3628 0.5816,-0.7954 0.7676,-1.298 0.1859,-0.5023 0.2792,-1.0604 0.2792,-1.6744 0,-0.614 -0.0933,-1.1815 -0.2792,-1.7025 -0.186,-0.521 -0.4419,-0.9677 -0.7676,-1.3399 -0.3254,-0.3719 -0.7025,-0.6605 -1.1302,-0.8651 -0.428,-0.2047 -0.8838,-0.307 -1.3677,-0.307 -0.4839,0 -0.9442,0.1023 -1.3816,0.307 -0.4374,0.2046 -0.8141,0.4932 -1.1305,0.8651 -0.3163,0.3722 -0.5675,0.8189 -0.7534,1.3399 -0.1863,0.521 -0.2792,1.0885 -0.2792,1.7025 0,0.614 0.0929,1.1721 0.2792,1.6744 0.1859,0.5026 0.4371,0.9352 0.7534,1.298 0.3164,0.3629 0.6931,0.6421 1.1305,0.8374 0.4374,0.1953 0.8977,0.2931 1.3816,0.2931 z m -42.6892,5.7937 c 1.3583,0 2.6144,0.2602 3.7774,0.7812 1.1583,0.521 2.1583,1.2376 2.9957,2.1493 0.8373,0.9116 1.4885,1.9817 1.963,3.2096 0.4745,1.228 0.7118,2.5399 0.7118,3.9354 0,1.4142 -0.2373,2.7354 -0.7118,3.9634 -0.4745,1.2279 -1.1257,2.298 -1.963,3.2096 -0.8374,0.9117 -1.8374,1.6283 -2.9957,2.1493 -1.163,0.521 -2.4191,0.7815 -3.7774,0.7815 -1.3768,0 -2.6422,-0.2605 -3.805,-0.7815 -1.1582,-0.521 -2.1585,-1.2376 -2.9956,-2.1493 -0.8374,-0.9116 -1.4888,-1.9817 -1.9633,-3.2096 -0.4742,-1.228 -0.7115,-2.5492 -0.7115,-3.9634 0,-1.3955 0.2373,-2.7074 0.7115,-3.9354 0.4745,-1.2279 1.1259,-2.298 1.9633,-3.2096 0.8371,-0.9117 1.8374,-1.6283 2.9956,-2.1493 1.1628,-0.521 2.4282,-0.7812 3.805,-0.7812 z m 0,16.6904 c 0.8002,0 1.5539,-0.1721 2.2515,-0.5165 0.7025,-0.3441 1.3119,-0.8186 1.8329,-1.4232 0.521,-0.605 0.9349,-1.3074 1.2325,-2.1073 0.298,-0.8002 0.4468,-1.656 0.4468,-2.5679 0,-0.8929 -0.1488,-1.7396 -0.4468,-2.5399 -0.2976,-0.7999 -0.7115,-1.5023 -1.2325,-2.1072 -0.521,-0.6047 -1.1304,-1.0792 -1.8329,-1.4233 -0.6976,-0.3444 -1.4513,-0.5165 -2.2515,-0.5165 -0.8,0 -1.5582,0.1721 -2.2652,0.5165 -0.7118,0.3441 -1.3257,0.8186 -1.8468,1.4233 -0.521,0.6049 -0.9351,1.3073 -1.2327,2.1072 -0.2977,0.8003 -0.4465,1.647 -0.4465,2.5399 0,0.9119 0.1488,1.7677 0.4465,2.5679 0.2976,0.7999 0.7117,1.5023 1.2327,2.1073 0.5211,0.6046 1.135,1.0791 1.8468,1.4232 0.707,0.3444 1.4652,0.5165 2.2652,0.5165 z m 24.3521,3.1538 h -3.6841 v -8.401 c 0,-0.2047 -0.0281,-0.47 -0.084,-0.7954 -0.0558,-0.3257 -0.172,-0.6421 -0.3489,-0.949 -0.1766,-0.307 -0.4419,-0.5675 -0.7954,-0.7816 -0.3535,-0.214 -0.8374,-0.3208 -1.4513,-0.3208 -0.8374,0 -1.5118,0.2698 -2.0234,0.8093 -0.5117,0.5397 -0.7676,1.2188 -0.7676,2.0375 v 8.401 H 78.5883 V 34.4432 h 3.5166 v 1.3955 c 0.4652,-0.5394 1.0049,-0.9675 1.6189,-1.2838 0.614,-0.3163 1.3119,-0.4745 2.0934,-0.4745 0.8374,0 1.6047,0.1536 2.3026,0.4606 0.6976,0.307 1.2886,0.735 1.7722,1.2838 0.4839,0.5488 0.8606,1.2141 1.1305,1.9956 0.2698,0.7815 0.4047,1.6467 0.4047,2.5957 z m 6.4749,0 H 94.218 V 28.0517 h 3.6841 z m 6.6147,0 h -3.6842 V 34.4432 h 3.6842 z m -1.8697,-15.546 c -0.5211,0 -0.9678,-0.1862 -1.34,-0.5584 -0.3719,-0.3719 -0.5581,-0.8187 -0.5581,-1.3397 0,-0.5394 0.1862,-1.0001 0.5581,-1.3816 0.3722,-0.3813 0.8189,-0.572 1.34,-0.572 0.5394,0 1,0.1907 1.3813,0.572 0.3815,0.3815 0.5723,0.8422 0.5723,1.3816 0,0.521 -0.1908,0.9678 -0.5723,1.3397 -0.3813,0.3722 -0.8419,0.5584 -1.3813,0.5584 z m 17.5835,15.546 h -3.6841 v -8.401 c 0,-0.2047 -0.0281,-0.47 -0.0839,-0.7954 -0.0559,-0.3257 -0.1721,-0.6421 -0.349,-0.949 -0.1766,-0.307 -0.4419,-0.5675 -0.7954,-0.7816 -0.3535,-0.214 -0.8373,-0.3208 -1.4513,-0.3208 -0.8374,0 -1.5118,0.2698 -2.0234,0.8093 -0.5117,0.5397 -0.7676,1.2188 -0.7676,2.0375 v 8.401 h -3.6842 V 34.4432 h 3.5166 v 1.3955 c 0.4652,-0.5394 1.0049,-0.9675 1.6189,-1.2838 0.614,-0.3163 1.3119,-0.4745 2.0934,-0.4745 0.8374,0 1.6047,0.1536 2.3026,0.4606 0.6976,0.307 1.2886,0.735 1.7722,1.2838 0.4839,0.5488 0.8606,1.2141 1.1305,1.9956 0.2698,0.7815 0.4047,1.6467 0.4047,2.5957 z m 15.211,-2.512 -0.1394,0.1956 c -0.6327,0.8373 -1.442,1.4884 -2.4282,1.9536 -0.9862,0.4652 -2.1214,0.6979 -3.4052,0.6979 -1.0046,0 -1.9537,-0.1956 -2.8469,-0.5862 -0.8932,-0.3909 -1.6747,-0.9258 -2.3445,-1.605 -0.6698,-0.6792 -1.2002,-1.4746 -1.5908,-2.3862 -0.3909,-0.9119 -0.5862,-1.8887 -0.5862,-2.9307 0,-1.0421 0.1953,-2.0234 0.5862,-2.9444 0.3906,-0.9212 0.921,-1.7212 1.5908,-2.4004 0.6698,-0.6791 1.4513,-1.2189 2.3445,-1.6188 0.8932,-0.4 1.8423,-0.6001 2.8469,-0.6001 1.0607,0 2.0607,0.2001 3.0004,0.6001 0.9397,0.3999 1.7445,0.9861 2.4143,1.7583 0.6698,0.7722 1.1721,1.7167 1.5072,2.8329 0.3347,1.1163 0.4371,2.3817 0.307,3.7959 h -10.8573 c 0.2418,0.8932 0.6837,1.5908 1.3258,2.0931 0.642,0.5026 1.4003,0.7538 2.2748,0.7538 0.5581,0 1.093,-0.1069 1.6047,-0.3209 0.5116,-0.214 0.9258,-0.563 1.2421,-1.0469 z m -2.4003,-6.2518 c -0.2231,-0.8374 -0.656,-1.5027 -1.2977,-1.9956 -0.6421,-0.4933 -1.4094,-0.7396 -2.3026,-0.7396 -0.8374,0 -1.5724,0.2463 -2.2051,0.7396 -0.6327,0.4929 -1.0791,1.1582 -1.3396,1.9956 z"
       style="fill:#fe9900;fill-rule:evenodd"
       id="path2" />
    <path
       d="m 26.3171,1.417 c 13.7519,0 24.9,11.1482 24.9,24.9 0,13.7519 -11.1481,24.9 -24.9,24.9 -13.7518,0 -24.8999,-11.1481 -24.8999,-24.9 0,-13.7518 11.1481,-24.9 24.8999,-24.9 z M 16.2483,13.004 h 22.4313 c 0.3067,0 0.5332,0.2519 0.5574,0.5575 l 0.9198,11.5929 c 2.9636,-2.503 3.3542,-5.0361 3.3542,-5.0361 0.6662,2.6042 -0.7491,4.9932 -3.1956,7.0362 l 1e-4,7e-4 c -0.0401,0.0334 -0.0808,0.0667 -0.1216,0.1 -0.0554,0.0453 -0.1113,0.0905 -0.1677,0.1356 -0.0496,0.0396 -0.0996,0.0791 -0.1499,0.1184 -0.0418,0.0328 -0.0837,0.0654 -0.1261,0.0979 -0.0738,0.0567 -0.1483,0.113 -0.2236,0.169 -0.0451,0.0334 -0.0905,0.0667 -0.136,0.1 -0.0487,0.0355 -0.0977,0.0709 -0.1469,0.1062 -0.0658,0.0471 -0.1321,0.0941 -0.1989,0.1408 -0.0555,0.0389 -0.1113,0.0776 -0.1674,0.1162 -0.0483,0.0331 -0.097,0.0662 -0.1459,0.0991 -0.0614,0.0414 -0.1233,0.0827 -0.1856,0.1237 -0.0654,0.0431 -0.1309,0.0859 -0.197,0.1286 -0.052,0.0335 -0.1041,0.0668 -0.1564,0.1002 -0.0497,0.0316 -0.0995,0.0632 -0.1497,0.0946 -0.0819,0.0511 -0.1644,0.102 -0.2475,0.1526 -0.0523,0.0319 -0.105,0.0636 -0.1577,0.0952 -0.0556,0.0334 -0.1115,0.0665 -0.1676,0.0996 -0.0743,0.0439 -0.1489,0.0875 -0.224,0.1309 -0.0594,0.0343 -0.1191,0.0685 -0.179,0.1025 -0.0536,0.0306 -0.1074,0.061 -0.1614,0.0912 -0.0797,0.0446 -0.1598,0.089 -0.2402,0.133 -0.0604,0.033 -0.1212,0.0659 -0.1819,0.0986 -0.0575,0.0311 -0.1153,0.0619 -0.1732,0.0927 -0.0561,0.0299 -0.1122,0.0597 -0.1687,0.0892 -0.087,0.0455 -0.1745,0.0908 -0.2623,0.1357 -0.0538,0.0275 -0.1076,0.0548 -0.1616,0.0821 -0.0698,0.0352 -0.1398,0.0702 -0.21,0.1051 -0.0697,0.0345 -0.1395,0.069 -0.2095,0.1031 -0.0696,0.034 -0.1396,0.0678 -0.2096,0.1016 -0.0502,0.0241 -0.1005,0.0482 -0.1509,0.0722 -0.0987,0.0467 -0.1976,0.0932 -0.297,0.1393 -0.049,0.0227 -0.0982,0.0452 -0.1474,0.0678 -0.0726,0.0332 -0.1453,0.0662 -0.2182,0.0991 -0.0557,0.0251 -0.1115,0.0503 -0.1674,0.0751 -0.0917,0.0408 -0.1835,0.0813 -0.2755,0.1213 -0.0498,0.0218 -0.0997,0.0434 -0.1497,0.0649 -0.0928,0.04 -0.1857,0.0798 -0.2789,0.1191 -0.0551,0.0233 -0.1103,0.0464 -0.1656,0.0694 -0.0769,0.0321 -0.154,0.064 -0.2312,0.0956 -0.0467,0.0193 -0.0933,0.0384 -0.1401,0.0573 -0.1054,0.0428 -0.211,0.0852 -0.3167,0.1271 -0.048,0.019 -0.0959,0.0378 -0.1437,0.0566 -0.0861,0.0338 -0.1722,0.0672 -0.2584,0.1005 -0.0463,0.0178 -0.0925,0.0356 -0.1388,0.0532 -0.098,0.0374 -0.1961,0.0744 -0.2943,0.111 l -0.1366,0.0507 c -0.1099,0.0406 -0.2197,0.0808 -0.3296,0.1204 -0.0369,0.0133 -0.0737,0.0264 -0.1106,0.0396 -0.0922,0.0329 -0.1844,0.0655 -0.2766,0.0978 -0.0365,0.0129 -0.073,0.0257 -0.1095,0.0384 -0.1133,0.0393 -0.2265,0.0781 -0.3396,0.1164 l -0.1143,0.0385 c -0.1091,0.0367 -0.2182,0.0729 -0.3272,0.1086 l -0.0855,0.0278 c -0.104,0.0338 -0.2077,0.0671 -0.3114,0.1 l -0.109,0.0345 c -0.115,0.0362 -0.2298,0.0719 -0.3444,0.1069 l -0.0947,0.0288 c -0.1042,0.0317 -0.2084,0.0629 -0.3123,0.0936 l -0.0652,0.0194 c -0.1194,0.0352 -0.2386,0.0696 -0.3573,0.1034 l -0.0912,0.0259 c -0.1193,0.0338 -0.2384,0.0671 -0.357,0.0996 l -0.047,0.0127 c -0.1083,0.0296 -0.2162,0.0585 -0.3238,0.087 L 27.3892,33.2 c -0.117,0.0307 -0.2336,0.0609 -0.3497,0.0903 l -0.0726,0.0182 c -0.1155,0.029 -0.2307,0.0577 -0.3452,0.0854 l -0.0198,0.005 c -0.1177,0.0284 -0.2346,0.056 -0.3509,0.0831 l -0.0825,0.019 c -0.1149,0.0266 -0.2293,0.0525 -0.3429,0.0776 l -0.0469,0.0102 c -0.1059,0.0234 -0.2113,0.046 -0.316,0.068 l -0.0587,0.0125 c -0.1113,0.0232 -0.2218,0.0457 -0.3315,0.0675 l -0.0746,0.0148 c -0.1122,0.0221 -0.224,0.0438 -0.3344,0.0644 -0.1214,0.0227 -0.243,0.0444 -0.3648,0.0654 l -0.0254,0.0043 c -0.113,0.0194 -0.2261,0.038 -0.3393,0.0559 l -0.0418,0.0065 c -0.1105,0.0172 -0.2211,0.0339 -0.3318,0.0498 l -0.0388,0.0056 c -0.1138,0.0162 -0.2276,0.0316 -0.3415,0.0463 l -0.0266,0.0035 c -0.1202,0.0155 -0.2404,0.0302 -0.3606,0.0439 l -0.0216,0.0024 c -0.1143,0.0131 -0.2286,0.0253 -0.3429,0.0369 l -0.0465,0.0046 c -0.1069,0.0106 -0.2138,0.0207 -0.3205,0.0299 l -0.0559,0.0049 c -0.105,0.009 -0.21,0.0173 -0.3148,0.025 l -0.0568,0.0042 c -0.1053,0.0076 -0.2105,0.0145 -0.3157,0.0208 l -0.0512,0.003 c -0.1101,0.0064 -0.2203,0.0122 -0.3302,0.0172 l -0.0698,0.003 c -0.0986,0.0042 -0.1971,0.008 -0.2955,0.0111 l -0.0813,0.0024 c -0.0926,0.0026 -0.185,0.0049 -0.2772,0.0066 l -0.0935,0.0016 c -0.0884,0.0012 -0.1768,0.002 -0.2649,0.0024 l -0.0955,4e-4 c -0.0869,10e-5 -0.1736,-4e-4 -0.2601,-0.0012 -0.0457,-4e-4 -0.0912,-10e-4 -0.1368,-0.0016 -0.0768,-0.0011 -0.1535,-0.0026 -0.23,-0.0044 C 19.085,34.2652 19.0379,34.2639 18.9907,34.2626 18.9135,34.2603 18.8366,34.2577 18.7598,34.2548 18.7163,34.2531 18.6729,34.2512 18.6295,34.2493 18.5589,34.2461 18.4884,34.2427 18.4181,34.239 18.3714,34.2365 18.3248,34.234 18.2783,34.2312 18.2122,34.2273 18.1463,34.2231 18.0806,34.2186 18.0122,34.2139 17.944,34.209 17.876,34.2039 17.8303,34.2003 17.7847,34.1968 17.7392,34.193 17.6668,34.187 17.5946,34.1808 17.5226,34.1741 17.485,34.1707 17.4475,34.1671 17.41,34.1635 17.3323,34.156 17.2549,34.148 17.1778,34.1397 c -0.0294,-0.0032 -0.0586,-0.0065 -0.0879,-0.0098 -0.0816,-0.0091 -0.163,-0.0186 -0.244,-0.0287 l -0.0137,-0.0017 c -0.1446,-0.018 -0.2881,-0.0374 -0.4305,-0.0582 l -0.0219,-0.0032 c -0.0951,-0.014 -0.1896,-0.0287 -0.2835,-0.044 L 16.0709,33.99 c -0.0948,-0.0155 -0.189,-0.0316 -0.2826,-0.0483 l -0.0159,-0.003 c -4.3228,-0.7784 -7.3589,-2.9095 -6.503,-6.3408 1.101,-4.4134 5.2702,-6.2588 5.3597,-6.3647 -5.5739,6.5461 -0.0477,8.9121 -0.0462,8.9128 l 1.1079,-16.5845 c 0.0205,-0.3059 0.2509,-0.5575 0.5575,-0.5575 z m 4.758,8.1972 c 0.0322,-0.1724 0.1983,-0.2861 0.3708,-0.2538 0.1725,0.0323 0.2861,0.1983 0.2539,0.3708 -0.0093,0.0494 -0.0158,0.1131 -0.0193,0.1894 -0.0304,0.6803 0.176,2.1427 0.8518,3.5308 0.6638,1.3632 1.7836,2.6412 3.581,2.9767 0.2277,0.0425 0.4663,0.0704 0.7164,0.0815 0.293,0.013 0.5747,0.0029 0.8451,-0.028 1.7182,-0.1964 2.9169,-1.2516 3.6977,-2.5003 0.7956,-1.2722 1.1613,-2.7367 1.2051,-3.7202 0.0088,-0.1974 0.0042,-0.3746 -0.0131,-0.5256 -0.0199,-0.1745 0.1055,-0.3322 0.28,-0.3521 0.1746,-0.0199 0.3323,0.1054 0.3522,0.28 0.0205,0.1794 0.026,0.3903 0.0156,0.6251 -0.0479,1.0698 -0.4422,2.6576 -1.2997,4.0287 -0.8722,1.3947 -2.2199,2.5742 -4.1656,2.7965 -0.2989,0.0342 -0.6136,0.0453 -0.9447,0.0305 -0.2803,-0.0125 -0.548,-0.0437 -0.8035,-0.0913 -2.0415,-0.3812 -3.3001,-1.8057 -4.0389,-3.3228 -0.7267,-1.4923 -0.9474,-3.0884 -0.914,-3.8369 0.0048,-0.1083 0.0148,-0.2021 0.0292,-0.279 z m 0.1663,-2.9677 c 0.4692,0 0.8495,0.3804 0.8495,0.8495 0,0.4691 -0.3803,0.8494 -0.8495,0.8494 -0.4692,0 -0.8494,-0.3803 -0.8494,-0.8494 0,-0.4691 0.3802,-0.8495 0.8494,-0.8495 z m 9.754,3.0125 c -0.1244,0.1238 -0.3255,0.1232 -0.4492,-0.0012 -0.1237,-0.1243 -0.1232,-0.3255 0.0013,-0.4492 l 2.0919,-2.0788 c 0.0802,-0.0695 0.2577,-0.1794 0.4594,-0.0252 l 2.209,2.1691 c 0.1251,0.123 0.1267,0.3242 0.0038,0.4492 -0.123,0.1251 -0.3242,0.1267 -0.4492,0.0038 l -1.9792,-1.9435 z m 9.5008,7.3195 0.8272,10.4269 c 0.0242,0.3057 -0.251,0.5575 -0.5575,0.5575 H 14.5493 c -0.3065,0 -0.5778,-0.2515 -0.5574,-0.5575 l 0.2427,-3.632 c 0,0 13.8578,2.3425 26.1928,-6.7949 z"
       style="fill:#fe9900;fill-rule:evenodd"
       id="path4" />
  </g>
</svg>
